<svg width="93" height="127" viewBox="0 0 93 127" fill="none" xmlns="http://www.w3.org/2000/svg">
<path d="M23.5977 86.4163C9.91211 78.4982 0.695312 63.6955 0.695312 46.7422C0.695312 21.4519 21.2097 0.9375 46.5 0.9375C71.7903 0.9375 92.3047 21.4519 92.3047 46.7422C92.3047 63.6955 83.0879 78.4982 69.4023 86.4163V102.602C69.4023 105.073 67.4054 107.07 64.9336 107.07H28.0664C25.5946 107.07 23.5977 105.073 23.5977 102.602V86.4163ZM29.7422 116.008H63.2578C63.8723 116.008 64.375 116.511 64.375 117.125V121.594C64.375 124.066 62.378 126.062 59.9062 126.062H33.0938C30.622 126.062 28.625 124.066 28.625 121.594V117.125C28.625 116.511 29.1277 116.008 29.7422 116.008Z" fill="#C1B202"/>
</svg>
