<svg width="132" height="132" viewBox="0 0 132 132" fill="none" xmlns="http://www.w3.org/2000/svg">
<path d="M66 0C29.5527 0 0 29.5527 0 66C0 102.447 29.5527 132 66 132C102.447 132 132 102.447 132 66C132 29.5527 102.447 0 66 0ZM38.7897 94.05C38.4951 94.1826 38.1415 94.05 38.0089 93.7406C37.95 93.5933 37.95 93.4165 38.0089 93.2692L52.5496 60.0482L72.0107 79.5094L38.7897 94.05ZM94.05 38.7897L79.5094 72.0107L60.0482 52.5496L93.2692 38.0089C93.5638 37.8763 93.9174 38.0089 94.05 38.3183C94.1089 38.4656 94.1089 38.6277 94.05 38.7897Z" fill="#FF7707"/>
</svg>
