<svg width="18" height="18" viewBox="0 0 18 18" fill="none" xmlns="http://www.w3.org/2000/svg">
<path fill-rule="evenodd" clip-rule="evenodd" d="M11.1836 9.73141C12.8984 7.32527 12.6764 3.96325 10.5177 1.80456C8.11166 -0.60152 4.21064 -0.60152 1.80456 1.80456C-0.60152 4.21064 -0.60152 8.11166 1.80456 10.5177C3.96325 12.6764 7.32527 12.8984 9.73141 11.1836L15.6004 17.0526L17.0526 15.6004L11.1836 9.73141ZM9.06555 3.25676C10.6696 4.86081 10.6696 7.46149 9.06555 9.06555C7.46149 10.6696 4.86081 10.6696 3.25676 9.06555C1.6527 7.46149 1.6527 4.86081 3.25676 3.25676C4.86081 1.6527 7.46149 1.6527 9.06555 3.25676Z" fill="#0994D0"/>
</svg>
