<?xml version="1.0" standalone="no"?>
<!DOCTYPE svg PUBLIC "-//W3C//DTD SVG 20010904//EN"
 "http://www.w3.org/TR/2001/REC-SVG-20010904/DTD/svg10.dtd">
<svg version="1.0" xmlns="http://www.w3.org/2000/svg"
 width="50.000000pt" height="50.000000pt" viewBox="0 0 50.000000 50.000000"
 preserveAspectRatio="xMidYMid meet">
<metadata>
Created by potrace 1.16, written by Peter Selinger 2001-2019
</metadata>
<g transform="translate(0.000000,50.000000) scale(0.100000,-0.100000)"
fill="#000000" stroke="none">
<path d="M20 395 l0 -85 85 0 85 0 0 30 c0 20 5 30 15 30 13 0 15 -23 15 -145
l0 -145 45 0 c43 0 45 -1 45 -30 l0 -30 85 0 85 0 0 85 0 85 -85 0 -85 0 0
-30 c0 -20 -5 -30 -15 -30 -12 0 -15 20 -15 120 0 100 3 120 15 120 10 0 15
-10 15 -30 l0 -30 85 0 85 0 0 85 0 85 -85 0 -85 0 0 -30 0 -30 -60 0 -60 0 0
30 0 30 -85 0 -85 0 0 -85z"/>
</g>
</svg>
