<svg width="311" height="354" viewBox="0 0 311 354" fill="none" xmlns="http://www.w3.org/2000/svg">
<circle cx="155.5" cy="128.5" r="128.5" fill="#EFEFEF"/>
<path d="M47.5021 314.674C54.5053 314.222 52.1175 317.585 51.87 319.929C51.3604 325.127 48.07 328.549 45.4201 331.504C42.319 334.62 37.9948 336.353 35.4469 334.955C32.171 333.164 35.1703 328.811 36.9028 326.219C44.9542 314.746 45.6822 313.669 47.5021 314.674Z" fill="#0994D0"/>
<path d="M130.411 264.385C127.746 278.449 125.286 292.543 122.374 306.607C119.84 316.522 117.249 326.51 112.182 337.561C109.954 342.467 104.902 344.302 102.136 343.472C98.598 342.395 99.3405 336.644 100.389 332.349C103.301 320.395 106.402 309.883 109.125 298.236C110.152 294.942 110.993 291.593 111.643 288.204C112.095 285.613 112.561 282.38 110.042 280.517C107.261 278.449 104.393 280.619 101.99 281.973C98.8608 283.794 95.9326 285.942 93.2547 288.379C88.0424 293.184 83.063 298.279 78.0691 303.244C74.6767 297.668 71.6629 292.456 72.3472 285.773C79.8462 278.713 86.2283 270.553 91.2746 261.575C93.5458 257.513 93.575 251.805 91.6094 248.995C84.155 238.294 75.3756 229.675 65.7226 221.201L65.9847 221.74C66.1012 220.881 65.81 221.158 65.4023 221.391C65.1257 218.071 62.7816 218.188 60.9617 216.499C58.5302 214.329 57.875 213.776 53.6819 209.918C50.3187 206.787 45.3975 201.4 48.3531 198.008C50.9156 195.096 57.2053 199.377 60.4812 202.274C67.295 208.273 73.8759 212.466 80.8645 217.896C86.4741 222.581 93.0998 225.891 100.214 227.564C108.498 229.34 116.23 226.836 118.748 218.755C120.498 213.029 121.478 207.095 121.66 201.109C122.024 191.121 121.66 188.311 121.66 178.324C121.66 175.062 121.34 169.588 121.471 167.317C121.602 165.045 120.641 163.502 122.927 162.949C125.213 162.396 126.727 164.288 127.95 166.196C129.952 169.456 131.298 173.076 131.91 176.853C133.148 183.419 132.536 181.847 133.584 188.501L134.4 196.96C134.706 208.607 134.997 206.03 134.618 217.649C134.618 218.304 134.021 226.385 134.007 227.011C133.153 235.542 132.284 244.079 131.401 252.621" fill="#0994D0"/>
<path d="M29.6022 288.99C25.9623 293.009 19.7017 299.662 16.0181 303.55C14.1836 305.515 14.766 307.612 16.4695 308.136C17.6925 308.529 24.6956 310.859 25.904 311.237C27.36 311.689 27.9278 311.485 24.3607 316.202C18.2412 324.128 11.4613 331.522 4.0939 338.303C1.80805 340.429 -1.58431 343.588 1.41495 346.602C4.00654 349.194 7.10771 345.772 9.49547 344.113C19.6871 337.051 30.8543 323.38 39.9103 315.197C40.3907 314.761 40.7402 315.372 49.7816 316.231C50.0728 316.231 51.9364 316.61 51.7763 318.328C51.1563 323.998 49.5914 329.524 47.1464 334.678C44.7295 339.934 43.0406 343.137 40.3325 347.927C39.4298 349.543 38.4689 351.465 40.3325 352.892C42.1961 354.319 43.8268 353.067 45.2827 351.989C49.6506 348.728 52.5625 344.346 55.0522 339.526C57.8185 334.343 59.4928 328.374 61.735 323.234L62.463 321.24C63.9189 317.192 64.0645 317.294 65.0691 317.25C67.981 317.148 73.4991 316.682 76.3527 316.289C80.8953 315.649 82.657 314.469 80.7206 309.679C79.6286 306.986 78.7842 304.307 77.8087 301.919C75.5228 295.105 74.1688 293.183 72.9021 285.103C72.2906 276.775 73.2807 269.364 73.0477 261.604C72.744 248.433 70.9515 235.338 67.7044 222.57L67.5879 221.915C67.3841 220.823 67.5879 221.74 67.3986 220.954C66.9182 218.042 64.2538 215.581 61.2982 216.207C58.3426 216.833 58.9541 223.167 59.2308 225.394C59.9587 231.335 61.4729 237.231 62.0262 243.186C62.5505 246.409 62.7214 249.68 62.5358 252.941C61.9971 258.372 59.1725 261.313 53.5234 262.157C40.5946 264.094 29.8205 258.779 19.3668 252.286C15.5231 249.913 11.8396 247.219 7.82113 245.181C5.82648 244.132 2.82722 242.545 0.788888 245.021C-1.01649 247.175 0.599614 249.287 2.40499 250.844L3.49696 251.66C14.8097 259.114 24.2443 265.549 36.2558 272.465C40.0996 274.678 39.3425 278.056 36.1685 281.667L29.6022 288.99Z" fill="#F48735"/>
<path d="M253.978 314.615C253.891 310.334 253.978 310.859 253.876 309.752C252.522 298.104 252.755 289.369 253.716 272.567C254.357 260.774 255.405 248.981 259.54 237.712C260.748 234.377 262 229.704 265.844 230.213C269.12 230.65 266.907 236.634 266.019 239.896C264.45 245.699 263.613 251.676 263.529 257.687C263.456 270.267 269.222 274.256 280.884 270.325C284.917 268.971 290.013 265.68 293.813 263.424C298.181 260.847 304.296 257.6 307.004 257.28C308.329 257.105 309.756 257.134 310.221 258.575C310.4 259.292 310.331 260.048 310.028 260.722C309.724 261.395 309.202 261.947 308.547 262.288C304.354 265.2 300.103 267.879 295.866 270.66C292.08 273.135 288.12 275.377 284.538 278.129C277.259 283.72 276.283 289.5 281.627 296.925C287.683 305.253 294.221 313.479 300.467 321.676C302.985 324.981 305.242 328.272 307.746 331.62C309.129 333.499 310.469 335.799 308.649 337.444C306.829 339.089 304.47 337.182 302.825 335.988C296.914 331.62 292.634 325.797 287.829 320.308C282.602 314.28 277.637 308.063 271.173 303.215C269.717 302.065 267.693 300.507 265.859 301.759C263.791 303.098 263.398 306.767 263.587 309.315C264.126 316.595 266.499 323.525 267.955 330.587C269.033 335.493 270.037 337.459 266.98 338.478C262.015 339.934 260.588 335.042 259.234 331.198C258.812 330.004 257.356 325.243 256.963 324.035L253.978 314.615Z" fill="#D5C405"/>
<path d="M179.856 257.469C180.395 265.215 175.619 281.128 173.639 288.423C172.431 292.79 175.649 294.814 180.002 294.858C181.618 294.858 183.744 294.989 185.36 294.96C189.8 294.96 194.853 294.96 194.853 294.96C196.396 299.24 197.764 305.151 199.832 309.738C200.138 310.917 200.618 311.922 201.186 313.538C201.654 314.514 202.067 315.515 202.423 316.537C204.593 320.905 206.689 325.273 208.961 329.495C211.232 333.717 213.867 337.896 218.002 340.822C218.793 341.427 219.772 341.736 220.767 341.693C221.762 341.65 222.711 341.26 223.447 340.589C225.253 339.337 224.306 337.677 223.709 336.221C222.69 333.717 221.496 331.286 220.273 328.869C217.054 322.925 214.295 316.743 212.018 310.378L209.106 301.453C208.67 300.19 208.353 298.889 208.16 297.566L207.519 293.198C209.962 292.363 212.464 291.711 215.003 291.247C217.711 290.636 220.201 289.282 220.725 289.646C222.371 291.063 223.838 292.677 225.093 294.45H225.165C226.621 296.052 226.01 295.426 226.825 296.445L227.655 297.449C228.048 297.843 228.267 298.221 228.645 298.614V298.527L229.533 299.444L233.421 303.695C242.375 313.203 245.592 315.736 255.26 323.555C256.381 324.457 257.546 325.287 258.681 326.161C259.67 326.757 260.719 327.245 261.812 327.617C262.773 327.966 267.024 329.553 268.829 327.952C270.081 326.874 269.572 325.578 268.742 324.647C265.908 321.617 262.847 318.808 259.584 316.246C256.727 313.986 254.009 311.555 251.445 308.966C245.476 302.778 237.92 292.106 233.377 284.826C233.275 284.666 237.745 282.672 240.497 280.837C248.897 275.144 249.989 275.93 243.277 268.796C238.24 263.438 232.183 257.571 227.393 251.98C216.444 239.197 214.668 239.313 221.395 232.398C230.858 222.686 241.996 214.926 251.824 205.608C253.752 203.74 255.538 201.73 257.167 199.595C258.448 197.993 261.186 195.46 258.885 193C256.905 190.859 254.343 191.777 252.392 193.145C246.859 197.062 242.2 201.342 237.279 205.608C228.339 213.31 218.905 219.76 206.704 220.939C197.837 221.784 193.076 217.43 191.169 208.651C189.305 200.09 190.412 191.398 190.907 182.808C191.577 176.664 191.984 172.136 192.363 166.53C192.523 164.172 192.363 161.464 189.451 161.027C187.485 160.736 185.389 162.861 184.442 165.016C181.865 170.927 181.531 177.625 180.861 183.944C178.924 203.657 177.629 231.291 180.031 250.917L179.856 257.469Z" fill="#BF6BC6"/>
<path d="M72.7969 285.103C72.1854 276.775 72.8697 269.393 72.9425 261.604L72.7969 285.103Z" fill="#F38737"/>
<path d="M184.994 321.967C178.923 310.902 174.802 304.161 169.692 292.266C168.885 290.289 168.599 288.139 168.862 286.02C170.143 277.648 175.094 270.762 178.137 265.637C181.121 260.017 184.368 255.008 187.265 249.505C188.503 247.132 189.362 244.787 188.43 243.099C187.498 241.41 185.62 241.788 184.761 243.259C183.926 244.693 183.002 246.074 181.995 247.394C178.093 252.897 173.725 257.25 169.313 262.39C161.713 270.762 147.576 269.582 139.423 261.545L129.581 251.66C126.989 248.995 124.718 246.52 122.694 244.263C122.01 243.492 120.277 243.754 119.447 245.181C118.282 247.175 120 249.738 121.282 251.427C124.47 255.649 127.746 260.017 131.037 264.195C135.811 269.899 140.116 275.98 143.907 282.38C145.072 284.337 145.782 286.531 145.984 288.799C146.185 291.067 145.874 293.352 145.072 295.484C143.15 300.944 140.85 306.272 138.564 311.601C134.997 319.929 131.168 328.155 128.751 336.92C128.328 338.478 127.95 340.21 129.537 341.448C131.43 342.904 133.017 341.666 134.429 340.589C137.188 338.237 139.467 335.375 141.141 332.159C145.247 325.127 148.93 317.847 153.385 311.033C157.841 304.219 160.403 304.365 165.193 310.771C169.983 317.177 174.031 323.598 178.399 330.048C180.542 333.63 183.32 336.793 186.596 339.381C187.833 340.254 189.275 340.837 190.614 339.948C191.15 339.42 191.536 338.759 191.73 338.032C191.925 337.305 191.921 336.539 191.721 335.814C191.24 333.848 189.056 330.325 187.906 327.66L184.994 321.967Z" fill="#9FBF04"/>
<path d="M276.557 266.554C281.462 266.554 285.438 262.578 285.438 257.673C285.438 252.768 281.462 248.791 276.557 248.791C271.652 248.791 267.676 252.768 267.676 257.673C267.676 262.578 271.652 266.554 276.557 266.554Z" fill="#D5C405"/>
<path d="M155.411 263.613C161.168 263.613 165.836 258.946 165.836 253.188C165.836 247.431 161.168 242.764 155.411 242.764C149.654 242.764 144.986 247.431 144.986 253.188C144.986 258.946 149.654 263.613 155.411 263.613Z" fill="#9FBF04"/>
<path d="M210.703 212.99C218.648 212.99 225.088 206.549 225.088 198.605C225.088 190.66 218.648 184.22 210.703 184.22C202.759 184.22 196.318 190.66 196.318 198.605C196.318 206.549 202.759 212.99 210.703 212.99Z" fill="#BF6BC6"/>
<path d="M99.7218 219.148C107.835 219.148 114.412 212.571 114.412 204.458C114.412 196.344 107.835 189.767 99.7218 189.767C91.6084 189.767 85.0312 196.344 85.0312 204.458C85.0312 212.571 91.6084 219.148 99.7218 219.148Z" fill="#0994D0"/>
<path d="M46.9313 257.382C52.8736 257.382 57.6908 252.565 57.6908 246.622C57.6908 240.68 52.8736 235.863 46.9313 235.863C40.9891 235.863 36.1719 240.68 36.1719 246.622C36.1719 252.565 40.9891 257.382 46.9313 257.382Z" fill="#F48735"/>
<path d="M127.703 131.539H120.008V144H111.062V131.539H84.9688V124.469L111.062 86.7344H120.008V123.922H127.703V131.539ZM111.062 123.922V109.586C111.062 104.482 111.193 100.302 111.453 97.0469H111.141C110.411 98.7656 109.266 100.849 107.703 103.297L93.5234 123.922H111.062ZM171.375 115.445C171.375 125.367 169.773 132.737 166.57 137.555C163.393 142.372 158.523 144.781 151.961 144.781C145.607 144.781 140.789 142.294 137.508 137.32C134.227 132.346 132.586 125.055 132.586 115.445C132.586 105.367 134.174 97.9453 137.352 93.1797C140.555 88.388 145.424 85.9922 151.961 85.9922C158.341 85.9922 163.172 88.4922 166.453 93.4922C169.734 98.4922 171.375 105.81 171.375 115.445ZM141.883 115.445C141.883 123.232 142.677 128.792 144.266 132.125C145.88 135.458 148.445 137.125 151.961 137.125C155.477 137.125 158.042 135.432 159.656 132.047C161.297 128.661 162.117 123.128 162.117 115.445C162.117 107.789 161.297 102.255 159.656 98.8438C158.042 95.4062 155.477 93.6875 151.961 93.6875C148.445 93.6875 145.88 95.3672 144.266 98.7266C142.677 102.086 141.883 107.659 141.883 115.445ZM219.109 131.539H211.414V144H202.469V131.539H176.375V124.469L202.469 86.7344H211.414V123.922H219.109V131.539ZM202.469 123.922V109.586C202.469 104.482 202.599 100.302 202.859 97.0469H202.547C201.818 98.7656 200.672 100.849 199.109 103.297L184.93 123.922H202.469Z" fill="#CACACA"/>
</svg>
