<svg width="268" height="47" viewBox="0 0 268 47" fill="none" xmlns="http://www.w3.org/2000/svg">
<path d="M100.032 32.24C98.336 32.24 96.8 31.872 95.424 31.136C94.064 30.384 92.992 29.352 92.208 28.04C91.44 26.728 91.056 25.248 91.056 23.6C91.056 21.952 91.448 20.472 92.232 19.16C93.016 17.848 94.088 16.824 95.448 16.088C96.824 15.336 98.36 14.96 100.056 14.96C101.432 14.96 102.688 15.2 103.824 15.68C104.96 16.16 105.92 16.856 106.704 17.768L104.688 19.664C103.472 18.352 101.976 17.696 100.2 17.696C99.048 17.696 98.016 17.952 97.104 18.464C96.192 18.96 95.48 19.656 94.968 20.552C94.456 21.448 94.2 22.464 94.2 23.6C94.2 24.736 94.456 25.752 94.968 26.648C95.48 27.544 96.192 28.248 97.104 28.76C98.016 29.256 99.048 29.504 100.2 29.504C101.976 29.504 103.472 28.84 104.688 27.512L106.704 29.432C105.92 30.344 104.952 31.04 103.8 31.52C102.664 32 101.408 32.24 100.032 32.24ZM120.985 25.664C120.985 25.872 120.969 26.168 120.937 26.552H110.881C111.057 27.496 111.513 28.248 112.249 28.808C113.001 29.352 113.929 29.624 115.033 29.624C116.441 29.624 117.601 29.16 118.513 28.232L120.121 30.08C119.545 30.768 118.817 31.288 117.937 31.64C117.057 31.992 116.065 32.168 114.961 32.168C113.553 32.168 112.313 31.888 111.241 31.328C110.169 30.768 109.337 29.992 108.745 29C108.169 27.992 107.881 26.856 107.881 25.592C107.881 24.344 108.161 23.224 108.721 22.232C109.297 21.224 110.089 20.44 111.097 19.88C112.105 19.32 113.241 19.04 114.505 19.04C115.753 19.04 116.865 19.32 117.841 19.88C118.833 20.424 119.601 21.2 120.145 22.208C120.705 23.2 120.985 24.352 120.985 25.664ZM114.505 21.44C113.545 21.44 112.729 21.728 112.057 22.304C111.401 22.864 111.001 23.616 110.857 24.56H118.129C118.001 23.632 117.609 22.88 116.953 22.304C116.297 21.728 115.481 21.44 114.505 21.44ZM127.826 32.168C126.786 32.168 125.77 32.032 124.778 31.76C123.786 31.488 122.994 31.144 122.402 30.728L123.554 28.448C124.13 28.832 124.818 29.144 125.618 29.384C126.434 29.608 127.234 29.72 128.018 29.72C129.81 29.72 130.706 29.248 130.706 28.304C130.706 27.856 130.474 27.544 130.01 27.368C129.562 27.192 128.834 27.024 127.826 26.864C126.77 26.704 125.906 26.52 125.234 26.312C124.578 26.104 124.002 25.744 123.506 25.232C123.026 24.704 122.786 23.976 122.786 23.048C122.786 21.832 123.29 20.864 124.298 20.144C125.322 19.408 126.698 19.04 128.426 19.04C129.306 19.04 130.186 19.144 131.066 19.352C131.946 19.544 132.666 19.808 133.226 20.144L132.074 22.424C130.986 21.784 129.762 21.464 128.402 21.464C127.522 21.464 126.85 21.6 126.386 21.872C125.938 22.128 125.714 22.472 125.714 22.904C125.714 23.384 125.954 23.728 126.434 23.936C126.93 24.128 127.69 24.312 128.714 24.488C129.738 24.648 130.578 24.832 131.234 25.04C131.89 25.248 132.45 25.6 132.914 26.096C133.394 26.592 133.634 27.296 133.634 28.208C133.634 29.408 133.114 30.368 132.074 31.088C131.034 31.808 129.618 32.168 127.826 32.168ZM143.922 31.304C143.57 31.592 143.138 31.808 142.626 31.952C142.13 32.096 141.602 32.168 141.042 32.168C139.634 32.168 138.546 31.8 137.778 31.064C137.01 30.328 136.626 29.256 136.626 27.848V21.68H134.514V19.28H136.626V16.352H139.626V19.28H143.058V21.68H139.626V27.776C139.626 28.4 139.778 28.88 140.082 29.216C140.386 29.536 140.826 29.696 141.402 29.696C142.074 29.696 142.634 29.52 143.082 29.168L143.922 31.304ZM158.798 19.184V32H155.942V30.368C155.462 30.944 154.862 31.392 154.142 31.712C153.422 32.016 152.646 32.168 151.814 32.168C150.102 32.168 148.75 31.696 147.758 30.752C146.782 29.792 146.294 28.376 146.294 26.504V19.184H149.294V26.096C149.294 27.248 149.55 28.112 150.062 28.688C150.59 29.248 151.334 29.528 152.294 29.528C153.366 29.528 154.214 29.2 154.838 28.544C155.478 27.872 155.798 26.912 155.798 25.664V19.184H158.798ZM161.406 36.824C160.142 36.824 159.182 36.576 158.526 36.08L159.39 33.848C159.838 34.184 160.422 34.352 161.142 34.352C161.702 34.352 162.126 34.176 162.414 33.824C162.718 33.488 162.87 32.984 162.87 32.312V19.184H165.87V32.24C165.87 33.664 165.478 34.784 164.694 35.6C163.91 36.416 162.814 36.824 161.406 36.824ZM164.358 17.072C163.814 17.072 163.358 16.904 162.99 16.568C162.622 16.216 162.438 15.784 162.438 15.272C162.438 14.76 162.622 14.336 162.99 14C163.358 13.648 163.814 13.472 164.358 13.472C164.902 13.472 165.358 13.64 165.726 13.976C166.094 14.296 166.278 14.704 166.278 15.2C166.278 15.728 166.094 16.176 165.726 16.544C165.374 16.896 164.918 17.072 164.358 17.072ZM180.397 32.168C179.357 32.168 178.341 32.032 177.349 31.76C176.357 31.488 175.565 31.144 174.973 30.728L176.125 28.448C176.701 28.832 177.389 29.144 178.189 29.384C179.005 29.608 179.805 29.72 180.589 29.72C182.381 29.72 183.277 29.248 183.277 28.304C183.277 27.856 183.045 27.544 182.581 27.368C182.133 27.192 181.405 27.024 180.397 26.864C179.341 26.704 178.477 26.52 177.805 26.312C177.149 26.104 176.573 25.744 176.077 25.232C175.597 24.704 175.357 23.976 175.357 23.048C175.357 21.832 175.861 20.864 176.869 20.144C177.893 19.408 179.269 19.04 180.997 19.04C181.877 19.04 182.757 19.144 183.637 19.352C184.517 19.544 185.237 19.808 185.797 20.144L184.645 22.424C183.557 21.784 182.333 21.464 180.973 21.464C180.093 21.464 179.421 21.6 178.957 21.872C178.509 22.128 178.285 22.472 178.285 22.904C178.285 23.384 178.525 23.728 179.005 23.936C179.501 24.128 180.261 24.312 181.285 24.488C182.309 24.648 183.149 24.832 183.805 25.04C184.461 25.248 185.021 25.6 185.485 26.096C185.965 26.592 186.205 27.296 186.205 28.208C186.205 29.408 185.685 30.368 184.645 31.088C183.605 31.808 182.189 32.168 180.397 32.168ZM207.973 14.192V32H205.093V30.344C204.597 30.952 203.981 31.408 203.245 31.712C202.525 32.016 201.725 32.168 200.845 32.168C199.613 32.168 198.501 31.896 197.509 31.352C196.533 30.808 195.765 30.04 195.205 29.048C194.645 28.04 194.365 26.888 194.365 25.592C194.365 24.296 194.645 23.152 195.205 22.16C195.765 21.168 196.533 20.4 197.509 19.856C198.501 19.312 199.613 19.04 200.845 19.04C201.693 19.04 202.469 19.184 203.173 19.472C203.877 19.76 204.477 20.192 204.973 20.768V14.192H207.973ZM201.205 29.6C201.925 29.6 202.573 29.44 203.149 29.12C203.725 28.784 204.181 28.312 204.517 27.704C204.853 27.096 205.021 26.392 205.021 25.592C205.021 24.792 204.853 24.088 204.517 23.48C204.181 22.872 203.725 22.408 203.149 22.088C202.573 21.752 201.925 21.584 201.205 21.584C200.485 21.584 199.837 21.752 199.261 22.088C198.685 22.408 198.229 22.872 197.893 23.48C197.557 24.088 197.389 24.792 197.389 25.592C197.389 26.392 197.557 27.096 197.893 27.704C198.229 28.312 198.685 28.784 199.261 29.12C199.837 29.44 200.485 29.6 201.205 29.6ZM223.946 25.664C223.946 25.872 223.93 26.168 223.898 26.552H213.842C214.018 27.496 214.474 28.248 215.21 28.808C215.962 29.352 216.89 29.624 217.994 29.624C219.402 29.624 220.562 29.16 221.474 28.232L223.082 30.08C222.506 30.768 221.778 31.288 220.898 31.64C220.018 31.992 219.026 32.168 217.922 32.168C216.514 32.168 215.274 31.888 214.202 31.328C213.13 30.768 212.298 29.992 211.706 29C211.13 27.992 210.842 26.856 210.842 25.592C210.842 24.344 211.122 23.224 211.682 22.232C212.258 21.224 213.05 20.44 214.058 19.88C215.066 19.32 216.202 19.04 217.466 19.04C218.714 19.04 219.826 19.32 220.802 19.88C221.794 20.424 222.562 21.2 223.106 22.208C223.666 23.2 223.946 24.352 223.946 25.664ZM217.466 21.44C216.506 21.44 215.69 21.728 215.018 22.304C214.362 22.864 213.962 23.616 213.818 24.56H221.09C220.962 23.632 220.57 22.88 219.914 22.304C219.258 21.728 218.442 21.44 217.466 21.44ZM221.978 14.144L218.762 17.432H216.026L212.81 14.144H215.282L217.394 15.92L219.506 14.144H221.978ZM234.531 31.304C234.179 31.592 233.747 31.808 233.235 31.952C232.739 32.096 232.211 32.168 231.651 32.168C230.243 32.168 229.155 31.8 228.387 31.064C227.619 30.328 227.235 29.256 227.235 27.848V21.68H225.123V19.28H227.235V16.352H230.235V19.28H233.667V21.68H230.235V27.776C230.235 28.4 230.387 28.88 230.691 29.216C230.995 29.536 231.435 29.696 232.011 29.696C232.683 29.696 233.243 29.52 233.691 29.168L234.531 31.304ZM253.175 19.04C254.791 19.04 256.071 19.512 257.015 20.456C257.959 21.384 258.431 22.784 258.431 24.656V32H255.431V25.04C255.431 23.92 255.183 23.08 254.687 22.52C254.191 21.944 253.479 21.656 252.551 21.656C251.543 21.656 250.735 21.992 250.127 22.664C249.519 23.32 249.215 24.264 249.215 25.496V32H246.215V25.04C246.215 23.92 245.967 23.08 245.471 22.52C244.975 21.944 244.263 21.656 243.335 21.656C242.311 21.656 241.495 21.984 240.887 22.64C240.295 23.296 239.999 24.248 239.999 25.496V32H236.999V19.184H239.855V20.816C240.335 20.24 240.935 19.8 241.655 19.496C242.375 19.192 243.175 19.04 244.055 19.04C245.015 19.04 245.863 19.224 246.599 19.592C247.351 19.944 247.943 20.472 248.375 21.176C248.903 20.504 249.583 19.984 250.415 19.616C251.247 19.232 252.167 19.04 253.175 19.04ZM262.265 19.184H265.265V32H262.265V19.184ZM263.777 17.072C263.233 17.072 262.777 16.904 262.409 16.568C262.041 16.216 261.857 15.784 261.857 15.272C261.857 14.76 262.041 14.336 262.409 14C262.777 13.648 263.233 13.472 263.777 13.472C264.321 13.472 264.777 13.64 265.145 13.976C265.513 14.296 265.697 14.704 265.697 15.2C265.697 15.728 265.513 16.176 265.145 16.544C264.793 16.896 264.337 17.072 263.777 17.072Z" fill="#3D3D3D"/>
<path d="M11.4794 37.1406C13.172 37.0315 12.5949 37.8443 12.5351 38.4109C12.4119 39.6671 11.6167 40.494 10.9762 41.2083C10.2267 41.9614 9.18165 42.3801 8.56585 42.0423C7.77412 41.6095 8.499 40.5573 8.91774 39.931C10.8636 37.1582 11.0396 36.8978 11.4794 37.1406Z" fill="#0994D0"/>
<path d="M31.5188 24.9865C30.8748 28.3857 30.2802 31.7919 29.5764 35.1911C28.9641 37.5874 28.3378 40.0014 27.1132 42.6721C26.5748 43.858 25.3538 44.3014 24.6852 44.1008C23.8302 43.8404 24.0096 42.4505 24.263 41.4124C24.9667 38.5234 25.7162 35.9829 26.3743 33.1678C26.6225 32.3717 26.8258 31.5623 26.983 30.7433C27.0921 30.117 27.2047 29.3358 26.596 28.8854C25.9239 28.3857 25.2306 28.91 24.65 29.2373C23.8937 29.6775 23.186 30.1965 22.5387 30.7856C21.279 31.9468 20.0756 33.1784 18.8686 34.3783C18.0487 33.0306 17.3203 31.7708 17.4857 30.1557C19.2981 28.4494 20.8406 26.4774 22.0602 24.3074C22.6091 23.3256 22.6162 21.9463 22.1411 21.2671C20.3395 18.6808 18.2176 16.5977 15.8846 14.5497L15.948 14.6799C15.9761 14.4723 15.9058 14.5391 15.8072 14.5954C15.7404 13.7932 15.1738 13.8213 14.734 13.4131C14.1463 12.8888 13.988 12.7551 12.9746 11.8226C12.1617 11.0661 10.9724 9.7641 11.6867 8.94421C12.306 8.24045 13.8261 9.27498 14.6179 9.97523C16.2647 11.425 17.8552 12.4384 19.5442 13.7509C20.9 14.8831 22.5013 15.6831 24.2207 16.0874C26.223 16.5167 28.0914 15.9115 28.7002 13.9585C29.1232 12.5745 29.3598 11.1403 29.404 9.69372C29.4919 7.27981 29.404 6.60067 29.404 4.18676C29.404 3.39854 29.3266 2.07546 29.3582 1.52653C29.3899 0.977591 29.1577 0.604596 29.7101 0.470881C30.2626 0.337165 30.6285 0.794612 30.9241 1.25558C31.4081 2.04354 31.7332 2.91857 31.8812 3.83136C32.1803 5.41835 32.0325 5.03831 32.2859 6.64642L32.4829 8.69086C32.5568 11.5059 32.6272 10.8831 32.5357 13.6911C32.5357 13.8495 32.3915 15.8024 32.3879 15.9537C32.1815 18.0157 31.9715 20.0789 31.7581 22.1433" fill="#0994D0"/>
<path d="M7.15442 30.9334C6.27471 31.9046 4.76162 33.5127 3.87135 34.4522C3.42798 34.9273 3.56873 35.434 3.98044 35.5607C4.27602 35.6557 5.96857 36.2187 6.26064 36.3102C6.61252 36.4193 6.74975 36.37 5.88764 37.5101C4.40863 39.4257 2.77004 41.2126 0.989436 42.8517C0.436981 43.3654 -0.382905 44.129 0.341972 44.8574C0.968323 45.4838 1.71783 44.6568 2.29492 44.2557C4.7581 42.5491 7.45704 39.2449 9.64575 37.2673C9.76187 37.1617 9.84632 37.3095 12.0315 37.5171C12.1019 37.5171 12.5523 37.6086 12.5136 38.0239C12.3637 39.3943 11.9855 40.73 11.3946 41.9755C10.8105 43.2458 10.4023 44.0199 9.74779 45.1776C9.52962 45.5682 9.29738 46.0327 9.74779 46.3775C10.1982 46.7224 10.5923 46.4198 10.9442 46.1594C11.9998 45.3712 12.7036 44.312 13.3053 43.1473C13.9739 41.8946 14.3786 40.4518 14.9205 39.2097L15.0964 38.7276C15.4483 37.7494 15.4835 37.774 15.7263 37.7635C16.43 37.7388 17.7637 37.6262 18.4534 37.5312C19.5512 37.3764 19.977 37.0914 19.509 35.9337C19.2451 35.2827 19.041 34.6352 18.8052 34.0581C18.2528 32.4113 17.9255 31.9468 17.6194 29.9939C17.4716 27.9811 17.7109 26.19 17.6546 24.3145C17.5812 21.1312 17.148 17.9665 16.3632 14.8805L16.335 14.7222C16.2858 14.4583 16.335 14.68 16.2893 14.49C16.1732 13.7862 15.5292 13.1915 14.8149 13.3428C14.1006 13.4941 14.2484 15.0248 14.3152 15.5632C14.4912 16.9989 14.8571 18.424 14.9908 19.8632C15.1176 20.6422 15.1589 21.4328 15.114 22.2208C14.9838 23.5333 14.3012 24.2441 12.9358 24.4482C9.81113 24.9162 7.2072 23.6319 4.68068 22.0625C3.75171 21.4889 2.86145 20.8379 1.89026 20.3453C1.40818 20.0919 0.683298 19.7084 0.190663 20.3066C-0.245671 20.8274 0.144918 21.3376 0.581253 21.7141L0.845164 21.9112C3.57929 23.7128 5.85949 25.2681 8.76252 26.9396C9.69149 27.4744 9.50851 28.2908 8.74141 29.1635L7.15442 30.9334Z" fill="#F48735"/>
<path d="M61.3832 37.1267C61.3621 36.0921 61.3832 36.2188 61.3586 35.9514C61.0314 33.1363 61.0877 31.025 61.3199 26.9643C61.4747 24.114 61.7281 21.2638 62.7274 18.5402C63.0195 17.7344 63.3221 16.6049 64.2511 16.728C65.0428 16.8336 64.508 18.2798 64.2933 19.068C63.9141 20.4707 63.7119 21.9152 63.6916 23.3681C63.674 26.4083 65.0675 27.3725 67.886 26.4224C68.8607 26.0951 70.0923 25.2999 71.0107 24.7545C72.0664 24.1316 73.5443 23.3469 74.1988 23.2695C74.519 23.2273 74.8639 23.2343 74.9765 23.5827C75.0195 23.756 75.003 23.9387 74.9296 24.1015C74.8562 24.2642 74.7302 24.3976 74.5718 24.48C73.5584 25.1838 72.5309 25.8312 71.5069 26.5033C70.592 27.1015 69.6349 27.6434 68.7693 28.3085C67.0098 29.6597 66.7741 31.0567 68.0655 32.8513C69.5293 34.864 71.1093 36.8522 72.6188 38.8333C73.2276 39.6321 73.773 40.4273 74.3783 41.2366C74.7125 41.6906 75.0363 42.2465 74.5964 42.6442C74.1566 43.0418 73.5865 42.5808 73.1889 42.2923C71.7603 41.2366 70.7257 39.8291 69.5645 38.5025C68.3013 37.0457 67.1013 35.5432 65.539 34.3714C65.1871 34.0934 64.698 33.7169 64.2546 34.0195C63.7549 34.3433 63.6599 35.23 63.7057 35.8458C63.8359 37.6052 64.4094 39.2802 64.7613 40.9868C65.0217 42.1726 65.2645 42.6477 64.5256 42.894C63.3256 43.2459 62.9808 42.0636 62.6535 41.1346C62.5515 40.8461 62.1996 39.6954 62.1046 39.4033L61.3832 37.1267Z" fill="#D5C405"/>
<path d="M43.4688 23.3152C43.599 25.1872 42.4449 29.0333 41.9663 30.7962C41.6742 31.8519 42.4519 32.341 43.504 32.3515C43.8946 32.3515 44.4084 32.3832 44.7989 32.3762C45.8722 32.3762 47.0932 32.3762 47.0932 32.3762C47.4662 33.4107 47.797 34.8393 48.2967 35.9478C48.3706 36.2328 48.4867 36.4756 48.6239 36.8662C48.737 37.1021 48.8369 37.3441 48.923 37.5911C49.4473 38.6467 49.954 39.7023 50.503 40.7228C51.0519 41.7433 51.6888 42.7532 52.6882 43.4605C52.8794 43.6067 53.1159 43.6812 53.3564 43.6709C53.5969 43.6606 53.8262 43.5662 54.0042 43.4041C54.4405 43.1015 54.2118 42.7004 54.0675 42.3485C53.8212 41.7433 53.5327 41.1556 53.2371 40.5715C52.4591 39.1349 51.7921 37.6409 51.2419 36.1026L50.5382 33.9455C50.4326 33.6402 50.356 33.3257 50.3094 33.006L50.1546 31.9504C50.745 31.7487 51.3495 31.5911 51.9633 31.4789C52.6178 31.3311 53.2195 31.0038 53.3462 31.0918C53.7441 31.4344 54.0986 31.8243 54.4018 32.253H54.4194C54.7713 32.6401 54.6235 32.4888 54.8206 32.7351L55.0211 32.9779C55.1161 33.0729 55.1689 33.1644 55.2604 33.2594V33.2383L55.4751 33.46L56.4146 34.4874C58.5787 36.7852 59.3563 37.3975 61.6928 39.2871C61.9638 39.5053 62.2453 39.7059 62.5197 39.917C62.7586 40.0611 63.0122 40.1791 63.2763 40.2689C63.5085 40.3533 64.536 40.7369 64.9724 40.3498C65.275 40.0894 65.1518 39.7762 64.9513 39.551C64.2664 38.8187 63.5265 38.14 62.7379 37.5207C62.0473 36.9744 61.3905 36.3869 60.7709 35.7613C59.3282 34.2658 57.5019 31.6865 56.404 29.9271C56.3794 29.8883 57.4597 29.4063 58.1247 28.9629C60.1551 27.587 60.419 27.7771 58.7968 26.0528C57.5793 24.7579 56.1155 23.3398 54.9578 21.9886C52.3116 18.8991 51.8823 18.9272 53.508 17.2558C55.7953 14.9087 58.4872 13.0332 60.8624 10.7811C61.3285 10.3296 61.7601 9.84379 62.1538 9.32786C62.4634 8.94079 63.125 8.32851 62.569 7.73383C62.0905 7.21656 61.4711 7.43825 60.9996 7.76902C59.6625 8.71558 58.5364 9.75012 57.3471 10.7811C55.1865 12.6426 52.9063 14.2014 49.9575 14.4865C47.8146 14.6905 46.6639 13.6384 46.203 11.5166C45.7526 9.4475 46.02 7.34676 46.1396 5.27065C46.3015 3.78571 46.4 2.69135 46.4915 1.33661C46.5302 0.766558 46.4915 0.112056 45.7877 0.00649147C45.3127 -0.063885 44.806 0.449863 44.5773 0.970649C43.9544 2.39929 43.8735 4.01795 43.7116 5.54512C43.2436 10.3096 42.9305 16.9883 43.5111 21.7317L43.4688 23.3152Z" fill="#BF6BC6"/>
<path d="M17.5946 29.9938C17.4468 27.9811 17.6122 26.197 17.6298 24.3145L17.5946 29.9938Z" fill="#F38737"/>
<path d="M44.7106 38.9035C43.2432 36.2292 42.2474 34.6 41.0123 31.7251C40.8172 31.2474 40.7482 30.7276 40.8117 30.2155C41.1214 28.1922 42.3178 26.5278 43.0532 25.2892C43.7746 23.9309 44.5593 22.7204 45.2595 21.3903C45.5586 20.8168 45.7662 20.2502 45.541 19.8421C45.3158 19.4339 44.8619 19.5254 44.6543 19.8808C44.4524 20.2274 44.2291 20.5612 43.9857 20.8801C43.0427 22.2102 41.987 23.2623 40.9208 24.5045C39.084 26.5278 35.6672 26.2428 33.6967 24.3004L31.3179 21.9111C30.6916 21.2672 30.1427 20.669 29.6535 20.1236C29.4881 19.9371 29.0694 20.0004 28.8688 20.3452C28.5873 20.8273 29.0026 21.4466 29.3122 21.8548C30.0828 22.8753 30.8746 23.9309 31.6698 24.9408C32.8239 26.3193 33.8641 27.7891 34.7805 29.3358C35.0621 29.8087 35.2336 30.339 35.2823 30.8872C35.3311 31.4354 35.2558 31.9876 35.062 32.5028C34.5975 33.8223 34.0415 35.1102 33.4891 36.3981C32.6269 38.4109 31.7015 40.399 31.1174 42.5174C31.0153 42.8939 30.9238 43.3126 31.3074 43.6117C31.7648 43.9636 32.1484 43.6645 32.4897 43.4041C33.1565 42.8357 33.7073 42.1439 34.1119 41.3667C35.1042 39.6671 35.9945 37.9077 37.0712 36.2609C38.148 34.6141 38.7673 34.6493 39.925 36.1975C41.0827 37.7458 42.0609 39.2976 43.1166 40.8565C43.6347 41.7222 44.306 42.4865 45.0977 43.112C45.3968 43.3232 45.7451 43.4639 46.0688 43.2493C46.1984 43.1216 46.2916 42.9617 46.3386 42.786C46.3856 42.6103 46.3848 42.4252 46.3363 42.2499C46.2202 41.7749 45.6923 40.9233 45.4143 40.2794L44.7106 38.9035Z" fill="#9FBF04"/>
<path d="M66.8403 25.511C68.0258 25.511 68.9868 24.55 68.9868 23.3645C68.9868 22.179 68.0258 21.218 66.8403 21.218C65.6549 21.218 64.6938 22.179 64.6938 23.3645C64.6938 24.55 65.6549 25.511 66.8403 25.511Z" fill="#D5C405"/>
<path d="M37.5605 24.8002C38.952 24.8002 40.08 23.6722 40.08 22.2807C40.08 20.8892 38.952 19.7612 37.5605 19.7612C36.169 19.7612 35.041 20.8892 35.041 22.2807C35.041 23.6722 36.169 24.8002 37.5605 24.8002Z" fill="#9FBF04"/>
<path d="M50.9248 12.5653C52.8449 12.5653 54.4014 11.0087 54.4014 9.08866C54.4014 7.16859 52.8449 5.61206 50.9248 5.61206C49.0048 5.61206 47.4482 7.16859 47.4482 9.08866C47.4482 11.0087 49.0048 12.5653 50.9248 12.5653Z" fill="#BF6BC6"/>
<path d="M24.1008 14.0536C26.0617 14.0536 27.6513 12.464 27.6513 10.5031C27.6513 8.54225 26.0617 6.95264 24.1008 6.95264C22.1399 6.95264 20.5503 8.54225 20.5503 10.5031C20.5503 12.464 22.1399 14.0536 24.1008 14.0536Z" fill="#0994D0"/>
<path d="M11.3421 23.2941C12.7783 23.2941 13.9425 22.1298 13.9425 20.6937C13.9425 19.2575 12.7783 18.0933 11.3421 18.0933C9.90594 18.0933 8.7417 19.2575 8.7417 20.6937C8.7417 22.1298 9.90594 23.2941 11.3421 23.2941Z" fill="#F48735"/>
</svg>
