<svg width="638" height="396" viewBox="0 0 638 396" fill="#F6F6F6" xmlns="http://www.w3.org/2000/svg">
<path d="M97.5772 315.702C111.964 314.774 107.059 321.684 106.55 326.499C105.504 337.177 98.7438 344.206 93.3 350.278C86.9291 356.679 78.0456 360.238 72.8113 357.367C66.0814 353.688 72.243 344.745 75.8023 339.421C92.3429 315.851 93.8384 313.638 97.5772 315.702Z" />
<path d="M267.915 212.39C262.441 241.284 257.386 270.237 251.404 299.131C246.2 319.5 240.876 340.019 230.467 362.721C225.89 372.801 215.511 376.57 209.828 374.865C202.56 372.651 204.086 360.837 206.239 352.013C212.221 327.456 218.592 305.861 224.185 281.932C226.296 275.166 228.023 268.285 229.36 261.324C230.287 256 231.244 249.36 226.07 245.531C220.357 241.284 214.464 245.741 209.529 248.522C203.1 252.264 197.084 256.676 191.583 261.683C180.875 271.553 170.645 282.022 160.386 292.222C153.417 280.766 147.225 270.058 148.631 256.329C164.037 241.825 177.148 225.063 187.515 206.618C192.181 198.272 192.241 186.548 188.203 180.775C172.889 158.791 154.853 141.083 135.022 123.675L135.56 124.782C135.8 123.017 135.201 123.586 134.364 124.064C133.796 117.245 128.98 117.484 125.241 114.014C120.246 109.558 118.9 108.421 110.286 100.495C103.377 94.064 93.2668 82.9971 99.3386 76.0279C104.603 70.0458 117.524 78.8395 124.254 84.7917C138.252 97.1149 151.772 105.729 166.129 116.886C177.653 126.509 191.265 133.31 205.88 136.746C222.899 140.395 238.782 135.251 243.956 118.651C247.552 106.886 249.563 94.6948 249.938 82.3989C250.686 61.8802 249.938 56.1075 249.938 35.5888C249.938 28.8888 249.28 17.6424 249.55 12.9764C249.819 8.31034 247.845 5.13981 252.541 4.00321C257.237 2.86661 260.347 6.75499 262.86 10.6733C266.973 17.3711 269.737 24.8089 270.995 32.5678C273.538 46.0575 272.282 42.8272 274.435 56.4963L276.11 73.8743C276.738 97.8028 277.337 92.5086 276.559 116.377C276.559 117.723 275.333 134.324 275.303 135.61C273.548 153.137 271.763 170.675 269.949 188.223" />
<path d="M60.8137 262.939C53.3361 271.195 40.4745 284.864 32.9072 292.85C29.1384 296.888 30.3348 301.195 33.8344 302.272C36.3469 303.079 50.7339 307.865 53.2164 308.643C56.2075 309.57 57.374 309.151 50.0459 318.842C37.4741 335.125 23.5458 350.314 8.41037 364.246C3.71441 368.613 -3.25476 375.104 2.90682 381.295C8.23091 386.62 14.6019 379.591 19.5072 376.181C40.4446 361.674 63.386 333.588 81.9904 316.778C82.9775 315.881 83.6953 317.137 102.27 318.902C102.868 318.902 106.697 319.68 106.368 323.209C105.094 334.858 101.879 346.211 96.856 356.799C91.8909 367.596 88.4212 374.177 82.8578 384.017C81.0034 387.337 79.0293 391.286 82.8578 394.217C86.6864 397.148 90.0364 394.576 93.0275 392.362C102.001 385.662 107.983 376.659 113.097 366.759C118.78 356.111 122.22 343.847 126.826 333.289L128.322 329.191C131.313 320.876 131.612 321.085 133.676 320.996C139.658 320.786 150.994 319.829 156.857 319.022C166.189 317.706 169.808 315.283 165.83 305.442C163.587 299.909 161.852 294.405 159.848 289.5C155.152 275.502 152.37 271.554 149.768 254.953C148.512 237.844 150.546 222.62 150.067 206.677C149.443 179.619 145.761 152.718 139.09 126.487L138.85 125.141C138.432 122.898 138.85 124.782 138.462 123.167C137.475 117.185 132.001 112.13 125.929 113.416C119.857 114.702 121.114 127.714 121.682 132.29C123.177 144.493 126.288 156.607 127.425 168.841C128.502 175.463 128.853 182.182 128.472 188.881C127.365 200.037 121.562 206.079 109.957 207.814C83.3962 211.792 61.2624 200.875 39.7866 187.535C31.8902 182.659 24.3228 177.126 16.0675 172.938C11.9697 170.785 5.80815 167.525 1.62067 172.609C-2.08825 177.036 1.23183 181.373 4.94074 184.574L7.18404 186.249C30.4246 201.563 49.8066 214.783 74.4829 228.991C82.3793 233.537 80.8239 240.476 74.3034 247.894L60.8137 262.939Z" />
<path d="M521.768 315.582C521.588 306.788 521.768 307.865 521.558 305.592C518.777 281.663 519.255 263.717 521.229 229.2C522.545 204.972 524.699 180.745 533.193 157.594C535.676 150.745 538.248 141.143 546.145 142.19C552.875 143.087 548.328 155.381 546.504 162.081C543.28 174.003 541.562 186.282 541.389 198.631C541.239 224.474 553.084 232.67 577.042 224.594C585.328 221.812 595.796 215.052 603.603 210.416C612.576 205.122 625.139 198.452 630.702 197.794C633.424 197.435 636.355 197.495 637.312 200.456C637.678 201.929 637.538 203.482 636.914 204.866C636.29 206.249 635.219 207.383 633.873 208.083C625.258 214.065 616.524 219.569 607.82 225.282C600.044 230.367 591.908 234.973 584.55 240.626C569.595 252.112 567.591 263.986 578.568 279.24C591.011 296.349 604.44 313.249 617.272 330.088C622.447 336.878 627.083 343.638 632.227 350.517C635.069 354.376 637.821 359.102 634.082 362.482C630.343 365.861 625.498 361.943 622.118 359.491C609.974 350.517 601.18 338.553 591.31 327.277C580.572 314.894 570.372 302.122 557.092 292.162C554.101 289.799 549.943 286.598 546.175 289.171C541.927 291.923 541.12 299.46 541.509 304.694C542.615 319.65 547.491 333.887 550.482 348.394C552.695 358.474 554.759 362.511 548.478 364.605C538.278 367.596 535.347 357.546 532.565 349.65C531.698 347.197 528.707 337.417 527.899 334.934L521.768 315.582Z" />
<path d="M369.492 198.183C370.599 214.095 360.788 246.788 356.72 261.773C354.238 270.746 360.848 274.904 369.791 274.993C373.111 274.993 377.478 275.263 380.798 275.203C389.921 275.203 400.3 275.203 400.3 275.203C403.471 283.996 406.282 296.14 410.53 305.562C411.158 307.985 412.145 310.049 413.311 313.369C414.273 315.374 415.121 317.431 415.854 319.53C420.31 328.503 424.617 337.477 429.283 346.151C433.95 354.825 439.363 363.409 447.858 369.421C449.483 370.664 451.494 371.298 453.538 371.21C455.582 371.123 457.531 370.32 459.044 368.942C462.753 366.37 460.809 362.96 459.583 359.969C457.489 354.825 455.036 349.83 452.524 344.864C445.911 332.653 440.241 319.954 435.565 306.878L429.583 288.543C428.686 285.948 428.035 283.274 427.638 280.557L426.322 271.584C431.341 269.869 436.48 268.529 441.696 267.576C447.26 266.319 452.374 263.538 453.451 264.285C456.834 267.197 459.847 270.512 462.424 274.156H462.574C465.565 277.446 464.309 276.16 465.984 278.254L467.689 280.317C468.496 281.125 468.945 281.903 469.723 282.71V282.531L471.547 284.415L479.533 293.149C497.928 312.681 504.539 317.885 524.399 333.947C526.702 335.802 529.095 337.506 531.428 339.301C533.458 340.526 535.614 341.529 537.859 342.292C539.833 343.01 548.567 346.27 552.276 342.98C554.848 340.767 553.801 338.105 552.096 336.19C546.275 329.966 539.985 324.196 533.283 318.932C527.413 314.289 521.829 309.295 516.563 303.977C504.299 291.265 488.776 269.34 479.443 254.385C479.234 254.056 488.417 249.958 494.07 246.189C511.328 234.494 513.571 236.11 499.783 221.453C489.434 210.446 476.991 198.392 467.15 186.907C444.657 160.645 441.008 160.884 454.827 146.677C474.269 126.727 497.151 110.784 517.34 91.6414C521.302 87.803 524.971 83.6738 528.317 79.2883C530.95 75.9982 536.573 70.7937 531.847 65.7388C527.779 61.342 522.515 63.2263 518.507 66.0379C507.141 74.0839 497.569 82.8776 487.46 91.6414C469.094 107.464 449.712 120.715 424.647 123.137C406.432 124.872 396.651 115.929 392.733 97.8927C388.904 80.3053 391.177 62.4487 392.194 44.8014C393.57 32.1792 394.408 22.877 395.185 11.3614C395.514 6.51587 395.185 0.952496 389.203 0.0551786C385.165 -0.543033 380.858 3.82391 378.914 8.25068C373.62 20.3944 372.932 34.1533 371.556 47.1344C367.578 87.6334 364.916 144.404 369.851 184.723L369.492 198.183Z" />
<path d="M149.557 254.953C148.301 237.844 149.706 222.68 149.856 206.678L149.557 254.953Z" />
<path d="M380.047 330.687C367.575 307.955 359.11 294.106 348.611 269.669C346.953 265.609 346.366 261.19 346.907 256.837C349.539 239.639 359.708 225.491 365.96 214.963C372.091 203.417 378.761 193.128 384.714 181.822C387.256 176.946 389.021 172.131 387.106 168.661C385.192 165.191 381.334 165.969 379.569 168.99C377.852 171.937 375.954 174.774 373.886 177.485C365.87 188.791 356.897 197.734 347.834 208.293C332.22 225.491 303.177 223.068 286.427 206.558L266.208 186.248C260.884 180.775 256.218 175.69 252.06 171.054C250.654 169.469 247.095 170.007 245.39 172.938C242.997 177.036 246.527 182.3 249.159 185.77C255.709 194.444 262.439 203.417 269.199 212.002C279.008 223.719 287.851 236.212 295.64 249.36C298.034 253.38 299.492 257.887 299.906 262.547C300.32 267.207 299.68 271.9 298.033 276.279C294.084 287.496 289.359 298.443 284.663 309.39C277.335 326.499 269.468 343.399 264.503 361.405C263.635 364.605 262.858 368.165 266.118 370.707C270.006 373.698 273.267 371.156 276.168 368.942C281.836 364.111 286.518 358.23 289.957 351.624C298.392 337.177 305.959 322.222 315.112 308.224C324.264 294.226 329.528 294.525 339.369 307.685C349.21 320.846 357.525 334.037 366.498 347.287C370.902 354.646 376.608 361.143 383.338 366.46C385.88 368.254 388.841 369.451 391.593 367.626C392.695 366.541 393.486 365.182 393.886 363.688C394.285 362.195 394.279 360.622 393.866 359.132C392.879 355.094 388.393 347.855 386.03 342.382L380.047 330.687Z" />
<path d="M568.154 216.847C578.23 216.847 586.399 208.678 586.399 198.602C586.399 188.525 578.23 180.356 568.154 180.356C558.077 180.356 549.908 188.525 549.908 198.602C549.908 208.678 558.077 216.847 568.154 216.847Z" />
<path d="M319.27 210.805C331.098 210.805 340.686 201.217 340.686 189.389C340.686 177.561 331.098 167.973 319.27 167.973C307.443 167.973 297.854 177.561 297.854 189.389C297.854 201.217 307.443 210.805 319.27 210.805Z" />
<path d="M432.87 106.806C449.19 106.806 462.421 93.5752 462.421 77.2543C462.421 60.9333 449.19 47.7026 432.87 47.7026C416.549 47.7026 403.318 60.9333 403.318 77.2543C403.318 93.5752 416.549 106.806 432.87 106.806Z" />
<path d="M204.86 119.458C221.528 119.458 235.04 105.946 235.04 89.2785C235.04 72.6106 221.528 59.0987 204.86 59.0987C188.193 59.0987 174.681 72.6106 174.681 89.2785C174.681 105.946 188.193 119.458 204.86 119.458Z" />
<path d="M96.4096 198.003C108.617 198.003 118.514 188.107 118.514 175.9C118.514 163.692 108.617 153.796 96.4096 153.796C84.2019 153.796 74.3057 163.692 74.3057 175.9C74.3057 188.107 84.2019 198.003 96.4096 198.003Z" />
</svg>
