<svg width="257" height="257" viewBox="0 0 257 257" fill="none" xmlns="http://www.w3.org/2000/svg">
<circle cx="128.5" cy="128.5" r="128.5" fill="#EFEFEF"/>
<path d="M199.421 99.7948C197.156 94.5514 193.891 89.7999 189.808 85.8062C185.722 81.8006 180.904 78.6174 175.617 76.4297C170.134 74.1522 164.253 72.9865 158.317 73.0001C149.988 73.0001 141.861 75.2809 134.799 79.589C133.11 80.6196 131.505 81.7515 129.984 82.9848C128.464 81.7515 126.859 80.6196 125.169 79.589C118.108 75.2809 109.981 73.0001 101.652 73.0001C95.6547 73.0001 89.843 74.1489 84.3522 76.4297C79.0474 78.626 74.2662 81.7853 70.1608 85.8062C66.0723 89.7953 62.8063 94.548 60.5479 99.7948C58.1995 105.252 57 111.047 57 117.01C57 122.636 58.1488 128.499 60.4296 134.462C62.3387 139.446 65.0756 144.616 68.5728 149.836C74.1142 158.098 81.7336 166.714 91.1945 175.449C106.873 189.927 122.399 199.929 123.058 200.334L127.062 202.902C128.836 204.034 131.116 204.034 132.89 202.902L136.894 200.334C137.553 199.912 153.062 189.927 168.757 175.449C178.218 166.714 185.838 158.098 191.379 149.836C194.876 144.616 197.63 139.446 199.522 134.462C201.803 128.499 202.952 122.636 202.952 117.01C202.969 111.047 201.769 105.252 199.421 99.7948ZM129.984 189.539C129.984 189.539 69.8398 151.002 69.8398 117.01C69.8398 99.7948 84.0819 85.84 101.652 85.84C114.002 85.84 124.713 92.7329 129.984 102.802C135.255 92.7329 145.967 85.84 158.317 85.84C175.887 85.84 190.129 99.7948 190.129 117.01C190.129 151.002 129.984 189.539 129.984 189.539Z" fill="#F44141" stroke="#F44141" stroke-width="0.5"/>
</svg>
