<svg width="319" height="291" viewBox="0 0 319 291" fill="none" xmlns="http://www.w3.org/2000/svg">
<circle cx="157.5" cy="162.5" r="128.5" fill="#EFEFEF"/>
<path fill-rule="evenodd" clip-rule="evenodd" d="M209.77 199.867C227.368 175.174 225.09 140.672 202.937 118.519C178.245 93.827 138.211 93.827 113.519 118.519C88.827 143.211 88.827 183.245 113.519 207.937C135.672 230.09 170.174 232.368 194.867 214.77L255.097 275L270 260.097L209.77 199.867ZM188.034 133.422C204.495 149.883 204.495 176.572 188.034 193.034C171.572 209.495 144.883 209.495 128.422 193.034C111.961 176.572 111.961 149.883 128.422 133.422C144.883 116.961 171.572 116.961 188.034 133.422Z" fill="#0994D0"/>
<path d="M49.2286 162.517C49.0422 163.211 48.588 163.802 47.9657 164.161C47.3434 164.52 46.6041 164.617 45.9104 164.43C45.2167 164.244 44.6254 163.79 44.2666 163.167C43.9079 162.545 43.811 161.806 43.9973 161.112L52.4285 129.725C52.6148 129.031 52.5179 128.292 52.1592 127.669C51.8004 127.047 51.2092 126.593 50.5154 126.407L13.8969 116.57C13.2032 116.384 12.4638 116.481 11.8416 116.84C11.2193 117.198 10.765 117.79 10.5787 118.483L1.44494 152.486C1.07226 153.874 1.266 155.352 1.98352 156.597C2.70104 157.841 3.88358 158.75 5.27098 159.123L44.5052 169.662C48.8314 170.824 53.2977 168.249 54.4598 163.922L61.4857 137.766L56.2545 136.361L49.2286 162.517ZM35.3296 130.74L43.1764 132.848L41.7713 138.079L33.9244 135.972L35.3296 130.74ZM32.5192 141.203L40.3661 143.311L38.9609 148.542L31.114 146.434L32.5192 141.203ZM17.0203 125.822L30.0984 129.335L25.8828 145.029L12.8047 141.516L17.0203 125.822ZM9.99438 151.978L11.3996 146.747L37.5557 153.773L36.1505 159.004L9.99438 151.978Z" fill="#A053A7"/>
<path d="M234.446 61.7066C238.279 59.9625 239.972 55.4413 238.228 51.6083C236.484 47.7753 231.963 46.0819 228.13 47.826C224.297 49.5701 222.603 54.0913 224.347 57.9243C226.092 61.7573 230.613 63.4507 234.446 61.7066Z" fill="#64349F"/>
<path d="M237.037 29.8113L208.697 42.7064C207.548 43.2309 206.653 44.19 206.21 45.3732C205.767 46.5565 205.811 47.8672 206.333 49.0178L219.228 77.3574C220.317 79.7495 223.148 80.8098 225.54 79.7213L237.396 74.3264L239.501 78.9533L230.248 83.1639L232.353 87.7908L255.487 77.2642L253.382 72.6373L244.128 76.848L242.023 72.2211L253.879 66.8262C255.029 66.3017 255.923 65.3426 256.366 64.1593C256.81 62.9761 256.765 61.6654 256.243 60.5148L243.348 32.1752C242.824 31.0257 241.864 30.1313 240.681 29.6881C239.498 29.2449 238.187 29.2892 237.037 29.8113ZM236.551 66.3335C230.173 69.2357 222.623 66.4077 219.721 60.0296C216.819 53.6515 219.647 46.1013 226.025 43.1991C232.403 40.2969 239.953 43.1249 242.855 49.503C245.757 55.8811 242.93 63.4313 236.551 66.3335Z" fill="#64349F"/>
<path d="M279.919 120.026C265.916 123.66 257.509 137.96 261.142 151.963C264.776 165.965 279.076 174.373 293.078 170.739C307.081 167.105 315.488 152.805 311.855 138.803C308.221 124.8 293.921 116.393 279.919 120.026ZM278.841 158.872C278.741 158.952 278.592 158.936 278.51 158.831C278.473 158.78 278.455 158.712 278.463 158.65L280.738 144.437L290.155 149.974L278.841 158.872ZM294.562 132.132L292.288 146.345L282.871 140.809L294.184 131.91C294.284 131.83 294.434 131.846 294.515 131.951C294.553 132.002 294.569 132.064 294.562 132.132Z" fill="#F48735"/>
<path d="M137.639 47.6466L124.522 14.0731L88.888 19.5003L86.0733 24.3754L90.9484 27.19L76.8753 51.5654L89.063 58.602L94.6922 48.8518C95.812 46.9124 97.6563 45.4972 99.8194 44.9176C101.983 44.338 104.287 44.6414 106.227 45.7611C108.166 46.8809 109.581 48.7252 110.161 50.8883C110.741 53.0515 110.437 55.3563 109.317 57.2957L103.688 67.0458L115.876 74.0824L129.949 49.707L134.824 52.5217L137.639 47.6466Z" fill="#0994D0"/>
<path d="M47.8934 253.13C42.9097 247.653 40.9057 239.773 43.3265 232.271C46.9379 221.079 59.0324 214.957 70.3314 218.603C81.6303 222.249 87.8662 234.285 84.2549 245.477C81.834 252.98 75.6025 258.202 68.3576 259.733L66.0464 266.896C65.6934 267.99 64.5161 268.585 63.4118 268.229L46.9406 262.914C45.8363 262.558 45.2293 261.387 45.5822 260.293L47.8934 253.13ZM46.4131 267.111L61.3869 271.943C61.6614 272.031 61.8142 272.326 61.7265 272.598L61.0883 274.576C60.7354 275.67 59.558 276.266 58.4537 275.909L46.4747 272.044C45.3704 271.688 44.7633 270.516 45.1163 269.422L45.7544 267.445C45.8422 267.173 46.1385 267.023 46.4131 267.111Z" fill="#C1B202"/>
</svg>
