<svg width="75" height="47" viewBox="0 0 75 47" fill="none" xmlns="http://www.w3.org/2000/svg">
<path d="M11.4794 37.1408C13.172 37.0317 12.5949 37.8446 12.5351 38.4111C12.4119 39.6673 11.6167 40.4942 10.9762 41.2086C10.2267 41.9616 9.18165 42.3803 8.56585 42.0425C7.77412 41.6097 8.499 40.5576 8.91774 39.9312C10.8636 37.1584 11.0396 36.898 11.4794 37.1408Z" fill="#0994D0"/>
<path d="M31.5193 24.9865C30.8753 28.3857 30.2806 31.7919 29.5769 35.1911C28.9646 37.5874 28.3383 40.0014 27.1137 42.6721C26.5753 43.858 25.3543 44.3014 24.6857 44.1008C23.8306 43.8404 24.0101 42.4505 24.2635 41.4124C24.9672 38.5234 25.7167 35.9829 26.3748 33.1678C26.623 32.3717 26.8263 31.5623 26.9835 30.7433C27.0926 30.117 27.2052 29.3358 26.5964 28.8854C25.9243 28.3857 25.2311 28.91 24.6505 29.2373C23.8942 29.6775 23.1865 30.1965 22.5392 30.7856C21.2795 31.9468 20.0761 33.1784 18.8691 34.3783C18.0492 33.0306 17.3208 31.7708 17.4862 30.1557C19.2986 28.4494 20.8411 26.4774 22.0607 24.3074C22.6096 23.3256 22.6166 21.9463 22.1416 21.2671C20.34 18.6808 18.2181 16.5977 15.8851 14.5497L15.9485 14.6799C15.9766 14.4723 15.9062 14.5391 15.8077 14.5954C15.7409 13.7932 15.1743 13.8213 14.7345 13.4131C14.1468 12.8888 13.9885 12.7551 12.9751 11.8226C12.1622 11.0661 10.9729 9.7641 11.6872 8.94421C12.3065 8.24045 13.8266 9.27498 14.6184 9.97523C16.2652 11.425 17.8557 12.4384 19.5447 13.7509C20.9005 14.8831 22.5018 15.6831 24.2212 16.0874C26.2234 16.5167 28.0919 15.9115 28.7007 13.9585C29.1237 12.5745 29.3603 11.1403 29.4045 9.69372C29.4924 7.27981 29.4045 6.60067 29.4045 4.18676C29.4045 3.39854 29.327 2.07546 29.3587 1.52653C29.3904 0.977591 29.1581 0.604596 29.7106 0.470881C30.2631 0.337165 30.629 0.794612 30.9246 1.25558C31.4085 2.04354 31.7337 2.91857 31.8817 3.83136C32.1808 5.41835 32.033 5.03831 32.2864 6.64642L32.4834 8.69086C32.5573 11.5059 32.6277 10.8831 32.5362 13.6911C32.5362 13.8495 32.3919 15.8024 32.3884 15.9537C32.182 18.0157 31.972 20.0789 31.7586 22.1433" fill="#0994D0"/>
<path d="M7.15442 30.9337C6.27471 31.9049 4.76162 33.513 3.87135 34.4525C3.42798 34.9275 3.56873 35.4342 3.98044 35.5609C4.27602 35.6559 5.96857 36.2189 6.26064 36.3104C6.61252 36.4195 6.74975 36.3702 5.88764 37.5103C4.40863 39.426 2.77004 41.2129 0.989436 42.8519C0.436981 43.3657 -0.382905 44.1293 0.341972 44.8577C0.968323 45.484 1.71783 44.6571 2.29492 44.2559C4.7581 42.5493 7.45704 39.2451 9.64575 37.2676C9.76187 37.162 9.84632 37.3098 12.0315 37.5174C12.1019 37.5174 12.5523 37.6089 12.5136 38.0241C12.3637 39.3945 11.9855 40.7302 11.3946 41.9757C10.8105 43.246 10.4023 44.0202 9.74779 45.1779C9.52962 45.5685 9.29738 46.0329 9.74779 46.3778C10.1982 46.7226 10.5923 46.42 10.9442 46.1596C11.9998 45.3714 12.7036 44.3122 13.3053 43.1475C13.9739 41.8948 14.3786 40.4521 14.9205 39.2099L15.0964 38.7279C15.4483 37.7496 15.4835 37.7743 15.7263 37.7637C16.43 37.7391 17.7637 37.6265 18.4534 37.5315C19.5512 37.3766 19.977 37.0916 19.509 35.9339C19.2451 35.2829 19.041 34.6355 18.8052 34.0584C18.2528 32.4116 17.9255 31.9471 17.6194 29.9941C17.4716 27.9814 17.7109 26.1903 17.6546 24.3148C17.5812 21.1315 17.148 17.9667 16.3632 14.8808L16.335 14.7224C16.2858 14.4585 16.335 14.6802 16.2893 14.4902C16.1732 13.7864 15.5292 13.1918 14.8149 13.3431C14.1006 13.4944 14.2484 15.0251 14.3152 15.5634C14.4912 16.9991 14.8571 18.4242 14.9908 19.8634C15.1176 20.6425 15.1589 21.433 15.114 22.2211C14.9838 23.5336 14.3012 24.2444 12.9358 24.4485C9.81113 24.9165 7.2072 23.6321 4.68068 22.0627C3.75171 21.4891 2.86145 20.8382 1.89026 20.3455C1.40818 20.0922 0.683298 19.7086 0.190663 20.3068C-0.245671 20.8276 0.144918 21.3378 0.581253 21.7143L0.845164 21.9114C3.57929 23.713 5.85949 25.2684 8.76252 26.9398C9.69149 27.4747 9.50851 28.291 8.74141 29.1637L7.15442 30.9337Z" fill="#F48735"/>
<path d="M61.3828 37.1267C61.3616 36.0921 61.3828 36.2188 61.3581 35.9514C61.0309 33.1363 61.0872 31.025 61.3194 26.9643C61.4742 24.114 61.7276 21.2638 62.7269 18.5402C63.019 17.7344 63.3216 16.6049 64.2506 16.728C65.0423 16.8336 64.5075 18.2798 64.2928 19.068C63.9136 20.4707 63.7114 21.9152 63.6911 23.3681C63.6735 26.4083 65.067 27.3725 67.8855 26.4224C68.8603 26.0951 70.0918 25.2999 71.0103 24.7545C72.0659 24.1316 73.5438 23.3469 74.1983 23.2695C74.5185 23.2273 74.8634 23.2343 74.976 23.5827C75.019 23.756 75.0026 23.9387 74.9292 24.1015C74.8557 24.2642 74.7297 24.3976 74.5713 24.48C73.5579 25.1838 72.5304 25.8312 71.5064 26.5033C70.5915 27.1015 69.6344 27.6434 68.7688 28.3085C67.0094 29.6597 66.7736 31.0567 68.065 32.8513C69.5288 34.864 71.1088 36.8522 72.6184 38.8333C73.2271 39.6321 73.7725 40.4273 74.3778 41.2366C74.7121 41.6906 75.0358 42.2465 74.5959 42.6442C74.1561 43.0418 73.586 42.5808 73.1884 42.2923C71.7598 41.2366 70.7252 39.8291 69.564 38.5025C68.3008 37.0457 67.1008 35.5432 65.5385 34.3714C65.1866 34.0934 64.6975 33.7169 64.2541 34.0195C63.7544 34.3433 63.6594 35.23 63.7052 35.8458C63.8354 37.6052 64.4089 39.2802 64.7608 40.9868C65.0212 42.1726 65.264 42.6477 64.5251 42.894C63.3251 43.2459 62.9803 42.0636 62.6531 41.1346C62.551 40.8461 62.1991 39.6954 62.1041 39.4033L61.3828 37.1267Z" fill="#D5C405"/>
<path d="M43.4688 23.3152C43.599 25.1872 42.4449 29.0333 41.9663 30.7962C41.6742 31.8519 42.4519 32.341 43.504 32.3515C43.8946 32.3515 44.4084 32.3832 44.7989 32.3762C45.8722 32.3762 47.0932 32.3762 47.0932 32.3762C47.4662 33.4107 47.797 34.8393 48.2967 35.9478C48.3706 36.2328 48.4867 36.4756 48.6239 36.8662C48.737 37.1021 48.8369 37.3441 48.923 37.5911C49.4473 38.6467 49.954 39.7023 50.503 40.7228C51.0519 41.7433 51.6888 42.7532 52.6882 43.4605C52.8794 43.6067 53.1159 43.6812 53.3564 43.6709C53.5969 43.6606 53.8262 43.5662 54.0042 43.4041C54.4405 43.1015 54.2118 42.7004 54.0675 42.3485C53.8212 41.7433 53.5327 41.1556 53.2371 40.5715C52.4591 39.1349 51.7921 37.6409 51.2419 36.1026L50.5382 33.9455C50.4326 33.6402 50.356 33.3257 50.3094 33.006L50.1546 31.9504C50.745 31.7487 51.3495 31.5911 51.9633 31.4789C52.6178 31.3311 53.2195 31.0038 53.3462 31.0918C53.7441 31.4344 54.0986 31.8243 54.4018 32.253H54.4194C54.7713 32.6401 54.6235 32.4888 54.8206 32.7351L55.0211 32.9779C55.1161 33.0729 55.1689 33.1644 55.2604 33.2594V33.2383L55.4751 33.46L56.4146 34.4874C58.5787 36.7852 59.3563 37.3975 61.6928 39.2871C61.9638 39.5053 62.2453 39.7059 62.5197 39.917C62.7586 40.0611 63.0122 40.1791 63.2763 40.2689C63.5085 40.3533 64.536 40.7369 64.9724 40.3498C65.275 40.0894 65.1518 39.7762 64.9513 39.551C64.2664 38.8187 63.5265 38.14 62.7379 37.5207C62.0473 36.9744 61.3905 36.3869 60.7709 35.7613C59.3282 34.2658 57.5019 31.6865 56.404 29.9271C56.3794 29.8883 57.4597 29.4063 58.1247 28.9629C60.1551 27.587 60.419 27.7771 58.7968 26.0528C57.5793 24.7579 56.1155 23.3398 54.9578 21.9886C52.3116 18.8991 51.8823 18.9272 53.508 17.2558C55.7953 14.9087 58.4872 13.0332 60.8624 10.7811C61.3285 10.3296 61.7601 9.84379 62.1538 9.32786C62.4634 8.94079 63.125 8.32851 62.569 7.73383C62.0905 7.21656 61.4711 7.43825 60.9996 7.76902C59.6625 8.71558 58.5364 9.75012 57.3471 10.7811C55.1865 12.6426 52.9063 14.2014 49.9575 14.4865C47.8146 14.6905 46.6639 13.6384 46.203 11.5166C45.7526 9.4475 46.02 7.34676 46.1396 5.27065C46.3015 3.78571 46.4 2.69135 46.4915 1.33661C46.5302 0.766558 46.4915 0.112056 45.7877 0.00649147C45.3127 -0.063885 44.806 0.449863 44.5773 0.970649C43.9544 2.39929 43.8735 4.01795 43.7116 5.54512C43.2436 10.3096 42.9305 16.9883 43.5111 21.7317L43.4688 23.3152Z" fill="#BF6BC6"/>
<path d="M17.5951 29.9938C17.4473 27.9811 17.6127 26.197 17.6303 24.3145L17.5951 29.9938Z" fill="#F38737"/>
<path d="M44.7106 38.9038C43.2432 36.2295 42.2474 34.6002 41.0123 31.7254C40.8172 31.2477 40.7482 30.7279 40.8117 30.2158C41.1214 28.1925 42.3178 26.5281 43.0532 25.2894C43.7746 23.9312 44.5593 22.7207 45.2595 21.3906C45.5586 20.817 45.7662 20.2505 45.541 19.8423C45.3158 19.4341 44.8619 19.5256 44.6543 19.881C44.4524 20.2277 44.2291 20.5614 43.9857 20.8803C43.0427 22.2105 41.987 23.2626 40.9208 24.5047C39.084 26.5281 35.6672 26.243 33.6967 24.3006L31.3179 21.9114C30.6916 21.2674 30.1427 20.6692 29.6535 20.1238C29.4881 19.9373 29.0694 20.0006 28.8688 20.3455C28.5873 20.8276 29.0026 21.4469 29.3122 21.8551C30.0828 22.8755 30.8746 23.9312 31.6698 24.9411C32.8239 26.3195 33.8641 27.7894 34.7805 29.3361C35.0621 29.809 35.2336 30.3392 35.2823 30.8875C35.3311 31.4357 35.2558 31.9879 35.062 32.503C34.5975 33.8226 34.0415 35.1105 33.4891 36.3984C32.6269 38.4111 31.7015 40.3993 31.1174 42.5176C31.0153 42.8941 30.9238 43.3129 31.3074 43.612C31.7648 43.9638 32.1484 43.6647 32.4897 43.4043C33.1565 42.8359 33.7073 42.1441 34.1119 41.3669C35.1042 39.6674 35.9945 37.9079 37.0712 36.2611C38.148 34.6143 38.7673 34.6495 39.925 36.1978C41.0827 37.7461 42.0609 39.2979 43.1166 40.8567C43.6347 41.7225 44.306 42.4868 45.0977 43.1123C45.3968 43.3234 45.7451 43.4642 46.0688 43.2495C46.1984 43.1219 46.2916 42.9619 46.3386 42.7862C46.3856 42.6105 46.3848 42.4255 46.3363 42.2502C46.2202 41.7751 45.6923 40.9236 45.4143 40.2796L44.7106 38.9038Z" fill="#9FBF04"/>
<path d="M66.8398 25.5107C68.0253 25.5107 68.9863 24.5497 68.9863 23.3643C68.9863 22.1788 68.0253 21.2178 66.8398 21.2178C65.6544 21.2178 64.6934 22.1788 64.6934 23.3643C64.6934 24.5497 65.6544 25.5107 66.8398 25.5107Z" fill="#D5C405"/>
<path d="M37.5605 24.7997C38.952 24.7997 40.08 23.6717 40.08 22.2802C40.08 20.8888 38.952 19.7607 37.5605 19.7607C36.169 19.7607 35.041 20.8888 35.041 22.2802C35.041 23.6717 36.169 24.7997 37.5605 24.7997Z" fill="#9FBF04"/>
<path d="M50.9248 12.5655C52.8449 12.5655 54.4014 11.009 54.4014 9.0889C54.4014 7.16883 52.8449 5.6123 50.9248 5.6123C49.0048 5.6123 47.4482 7.16883 47.4482 9.0889C47.4482 11.009 49.0048 12.5655 50.9248 12.5655Z" fill="#BF6BC6"/>
<path d="M24.1003 14.0541C26.0612 14.0541 27.6508 12.4645 27.6508 10.5036C27.6508 8.54274 26.0612 6.95312 24.1003 6.95312C22.1394 6.95312 20.5498 8.54274 20.5498 10.5036C20.5498 12.4645 22.1394 14.0541 24.1003 14.0541Z" fill="#0994D0"/>
<path d="M11.3426 23.2936C12.7788 23.2936 13.943 22.1294 13.943 20.6932C13.943 19.257 12.7788 18.0928 11.3426 18.0928C9.90643 18.0928 8.74219 19.257 8.74219 20.6932C8.74219 22.1294 9.90643 23.2936 11.3426 23.2936Z" fill="#F48735"/>
</svg>
