<svg width="256" height="256" viewBox="0 0 256 256" fill="none" xmlns="http://www.w3.org/2000/svg">
<path fill-rule="evenodd" clip-rule="evenodd" d="M128 56C130.122 56 132.157 56.8429 133.657 58.3431C135.157 59.8434 136 61.8783 136 64V128C136 130.122 135.157 132.157 133.657 133.657C132.157 135.157 130.122 136 128 136H64C61.8783 136 59.8434 135.157 58.3431 133.657C56.8429 132.157 56 130.122 56 128C56 125.878 56.8429 123.843 58.3431 122.343C59.8434 120.843 61.8783 120 64 120H120V64C120 61.8783 120.843 59.8434 122.343 58.3431C123.843 56.8429 125.878 56 128 56Z" fill="#0B87BD"/>
<path fill-rule="evenodd" clip-rule="evenodd" d="M120 128C120 125.878 120.843 123.843 122.343 122.343C123.843 120.843 125.878 120 128 120H192C194.122 120 196.157 120.843 197.657 122.343C199.157 123.843 200 125.878 200 128C200 130.122 199.157 132.157 197.657 133.657C196.157 135.157 194.122 136 192 136H136V192C136 194.122 135.157 196.157 133.657 197.657C132.157 199.157 130.122 200 128 200C125.878 200 123.843 199.157 122.343 197.657C120.843 196.157 120 194.122 120 192V128Z" fill="#0B87BD"/>
<path d="M72 57L52 41L32 57V61H36V81H46V73C46 71.4087 46.6321 69.8826 47.7574 68.7574C48.8826 67.6321 50.4087 67 52 67C53.5913 67 55.1174 67.6321 56.2426 68.7574C57.3679 69.8826 58 71.4087 58 73V81H68V61H72V57Z" fill="#0B87BD"/>
<path d="M198 176C186.955 176 178 184.955 178 196C178 207.045 186.955 216 198 216C209.045 216 218 207.045 218 196C218 184.955 209.045 176 198 176ZM189.754 204.5C189.665 204.54 189.558 204.5 189.518 204.406C189.5 204.362 189.5 204.308 189.518 204.263L193.924 194.196L199.821 200.094L189.754 204.5ZM206.5 187.754L202.094 197.821L196.196 191.924L206.263 187.518C206.353 187.478 206.46 187.518 206.5 187.612C206.518 187.656 206.518 187.705 206.5 187.754Z" fill="#0B87BD"/>
</svg>
