<svg width="87" height="54" viewBox="0 0 87 54" fill="none" xmlns="http://www.w3.org/2000/svg">
<path d="M13.3162 43.0832C15.2796 42.9567 14.6102 43.8996 14.5408 44.5568C14.3979 46.014 13.4754 46.9732 12.7325 47.8019C11.8631 48.6754 10.6508 49.1611 9.93645 48.7692C9.01803 48.2672 9.85889 47.0467 10.3446 46.3201C12.6019 43.1036 12.806 42.8016 13.3162 43.0832Z" fill="#0994D0"/>
<path d="M36.562 28.9847C35.8151 32.9277 35.1252 36.8789 34.3089 40.822C33.5986 43.6017 32.8721 46.4019 31.4516 49.5C30.827 50.8756 29.4106 51.3899 28.6351 51.1572C27.6432 50.8552 27.8514 49.2429 28.1453 48.0387C28.9616 44.6875 29.8311 41.7404 30.5944 38.4749C30.8824 37.5515 31.1182 36.6125 31.3005 35.6626C31.4271 34.936 31.5577 34.0298 30.8515 33.5073C30.0719 32.9277 29.2678 33.5359 28.5943 33.9155C27.7169 34.4262 26.896 35.0282 26.1452 35.7115C24.6839 37.0586 23.2879 38.4872 21.8878 39.8791C20.9367 38.3158 20.0918 36.8545 20.2836 34.9809C22.386 33.0016 24.1753 30.7141 25.59 28.1969C26.2268 27.058 26.235 25.4579 25.6839 24.6701C23.594 21.67 21.1327 19.2535 18.4264 16.8779L18.4999 17.0289C18.5325 16.7881 18.4509 16.8657 18.3366 16.931C18.259 16.0003 17.6019 16.033 17.0916 15.5595C16.41 14.9513 16.2263 14.7962 15.0507 13.7145C14.1078 12.8369 12.7281 11.3266 13.5568 10.3755C14.2752 9.55915 16.0385 10.7592 16.9569 11.5715C18.8672 13.2532 20.7122 14.4288 22.6715 15.9513C24.2442 17.2646 26.1017 18.1927 28.0963 18.6617C30.4189 19.1597 32.5863 18.4576 33.2925 16.1922C33.7831 14.5867 34.0577 12.923 34.1089 11.245C34.2109 8.44481 34.1089 7.65701 34.1089 4.85687C34.1089 3.94253 34.0191 2.40776 34.0558 1.77099C34.0925 1.13422 33.8231 0.701546 34.464 0.546436C35.1048 0.391326 35.5293 0.921966 35.8722 1.45669C36.4336 2.37073 36.8108 3.38576 36.9825 4.4446C37.3294 6.28551 37.158 5.84467 37.4519 7.71008L37.6805 10.0816C37.7662 13.3471 37.8478 12.6246 37.7417 15.8819C37.7417 16.0656 37.5743 18.331 37.5703 18.5066C37.3308 20.8985 37.0872 23.2918 36.8396 25.6865" fill="#0994D0"/>
<path d="M8.29914 35.8829C7.27868 37.0095 5.52349 38.8749 4.49078 39.9647C3.97647 40.5158 4.13974 41.1036 4.61732 41.2505C4.96019 41.3607 6.92356 42.0138 7.26235 42.1199C7.67054 42.2465 7.82973 42.1893 6.82968 43.5118C5.11403 45.734 3.21326 47.8068 1.14775 49.7081C0.506899 50.304 -0.444171 51.1898 0.396689 52.0347C1.12326 52.7613 1.99269 51.8021 2.66211 51.3367C5.51941 49.357 8.65018 45.5242 11.1891 43.2302C11.3238 43.1077 11.4218 43.2792 13.9566 43.52C14.0382 43.52 14.5607 43.6261 14.5158 44.1078C14.342 45.6975 13.9032 47.2469 13.2178 48.6917C12.5402 50.1652 12.0667 51.0633 11.3075 52.4062C11.0544 52.8593 10.785 53.3981 11.3075 53.7981C11.8299 54.1981 12.2871 53.8471 12.6953 53.545C13.9198 52.6307 14.7362 51.4021 15.4342 50.051C16.2098 48.5978 16.6792 46.9243 17.3078 45.4834L17.5119 44.9242C17.9201 43.7894 17.9609 43.818 18.2425 43.8057C19.0589 43.7772 20.6059 43.6465 21.406 43.5363C22.6795 43.3567 23.1734 43.0261 22.6305 41.6832C22.3244 40.928 22.0876 40.177 21.8141 39.5075C21.1733 37.5972 20.7937 37.0584 20.4386 34.793C20.2671 32.4582 20.5447 30.3805 20.4794 28.2049C20.3942 24.5123 19.8917 20.8411 18.9813 17.2615L18.9487 17.0778C18.8915 16.7717 18.9487 17.0288 18.8956 16.8084C18.7609 15.992 18.0139 15.3022 17.1853 15.4777C16.3567 15.6532 16.5281 17.4288 16.6057 18.0534C16.8098 19.7188 17.2343 21.3719 17.3894 23.0414C17.5364 23.9451 17.5843 24.8621 17.5323 25.7762C17.3813 27.2987 16.5894 28.1233 15.0056 28.36C11.3809 28.9029 8.36037 27.413 5.42961 25.5925C4.352 24.9272 3.31929 24.1721 2.1927 23.6006C1.63349 23.3067 0.792628 22.8618 0.22117 23.5557C-0.284979 24.1598 0.168106 24.7517 0.674254 25.1884L0.980393 25.417C4.15199 27.5069 6.79702 29.3111 10.1645 31.25C11.2422 31.8704 11.0299 32.8174 10.1401 33.8297L8.29914 35.8829Z" fill="#F48735"/>
<path d="M71.2046 43.0668C71.1801 41.8667 71.2046 42.0137 71.176 41.7034C70.7964 38.438 70.8617 35.9889 71.1311 31.2784C71.3107 27.9721 71.6046 24.6658 72.7639 21.5065C73.1027 20.5717 73.4537 19.2615 74.5313 19.4043C75.4497 19.5268 74.8293 21.2044 74.5803 22.1187C74.1404 23.7458 73.9059 25.4215 73.8823 27.1068C73.8619 30.6335 75.4783 31.7519 78.7479 30.6498C79.8785 30.2702 81.3072 29.3477 82.3726 28.715C83.5971 27.9925 85.3115 27.0823 86.0707 26.9925C86.4422 26.9435 86.8422 26.9517 86.9728 27.3558C87.0228 27.5568 87.0036 27.7687 86.9185 27.9575C86.8333 28.1464 86.6871 28.301 86.5034 28.3966C85.3278 29.213 84.1359 29.9641 82.9481 30.7437C81.8868 31.4376 80.7765 32.0662 79.7724 32.8377C77.7315 34.4051 77.458 36.0256 78.956 38.1073C80.6541 40.4422 82.4868 42.7484 84.238 45.0465C84.9441 45.9731 85.5768 46.8955 86.2789 47.8344C86.6667 48.3609 87.0422 49.0059 86.532 49.4671C86.0217 49.9284 85.3605 49.3936 84.8992 49.0589C83.242 47.8344 82.0419 46.2016 80.6949 44.6628C79.2295 42.9729 77.8376 41.2299 76.0253 39.8707C75.6171 39.5482 75.0497 39.1115 74.5354 39.4625C73.9558 39.838 73.8456 40.8667 73.8986 41.581C74.0497 43.6219 74.715 45.5649 75.1232 47.5446C75.4252 48.9201 75.7069 49.4712 74.8497 49.7569C73.4578 50.1651 73.0578 48.7936 72.6782 47.716C72.5598 47.3813 72.1516 46.0465 72.0414 45.7077L71.2046 43.0668Z" fill="#D5C405"/>
<path d="M50.4242 27.0457C50.5753 29.2172 49.2364 33.6787 48.6813 35.7237C48.3425 36.9482 49.2446 37.5156 50.4651 37.5279C50.9181 37.5279 51.5141 37.5646 51.9672 37.5564C53.2121 37.5564 54.6285 37.5564 54.6285 37.5564C55.0612 38.7565 55.4449 40.4137 56.0245 41.6995C56.1103 42.0301 56.245 42.3118 56.4041 42.7649C56.5353 43.0385 56.6512 43.3192 56.7511 43.6057C57.3593 44.8303 57.9471 46.0548 58.5839 47.2386C59.2206 48.4223 59.9594 49.5938 61.1187 50.4142C61.3405 50.5839 61.6148 50.6703 61.8938 50.6584C62.1728 50.6465 62.4388 50.5369 62.6453 50.3489C63.1514 49.9979 62.8861 49.5326 62.7188 49.1244C62.433 48.4223 62.0983 47.7406 61.7554 47.0631C60.853 45.3966 60.0793 43.6635 59.441 41.8791L58.6247 39.3769C58.5023 39.0228 58.4134 38.6579 58.3594 38.2871L58.1798 37.0625C58.8646 36.8285 59.5659 36.6457 60.2778 36.5156C61.037 36.3441 61.735 35.9645 61.882 36.0666C62.3436 36.464 62.7548 36.9163 63.1065 37.4136H63.1269C63.5351 37.8626 63.3637 37.687 63.5923 37.9728L63.8249 38.2544C63.9352 38.3646 63.9964 38.4708 64.1025 38.581V38.5565L64.3515 38.8136L65.4414 40.0055C67.9517 42.671 68.8538 43.3812 71.5641 45.5732C71.8784 45.8263 72.205 46.0589 72.5234 46.3038C72.8004 46.471 73.0946 46.6078 73.401 46.712C73.6704 46.81 74.8623 47.2549 75.3684 46.8059C75.7194 46.5038 75.5766 46.1406 75.3439 45.8793C74.5495 45.0298 73.6911 44.2425 72.7764 43.5241C71.9754 42.8905 71.2134 42.2089 70.4947 41.4832C68.8211 39.7484 66.7026 36.7564 65.4291 34.7155C65.4005 34.6706 66.6537 34.1114 67.4251 33.597C69.7804 32.001 70.0865 32.2215 68.2048 30.2214C66.7924 28.7192 65.0944 27.0743 63.7515 25.5068C60.6819 21.923 60.1839 21.9556 62.0697 20.0167C64.7229 17.2941 67.8456 15.1185 70.6008 12.5061C71.1415 11.9823 71.6422 11.4188 72.0988 10.8203C72.4581 10.3713 73.2254 9.6611 72.5805 8.97126C72.0254 8.37123 71.307 8.62839 70.76 9.01208C69.2089 10.1101 67.9027 11.3102 66.523 12.5061C64.0168 14.6654 61.3718 16.4737 57.9512 16.8043C55.4653 17.0411 54.1306 15.8206 53.5958 13.3593C53.0734 10.9591 53.3836 8.52226 53.5224 6.11397C53.7101 4.39143 53.8244 3.12198 53.9305 1.55047C53.9754 0.889209 53.9305 0.129986 53.1142 0.00753013C52.5631 -0.0741068 51.9753 0.521843 51.71 1.12596C50.9875 2.78319 50.8937 4.66083 50.7059 6.43236C50.163 11.9592 49.7997 19.7065 50.4732 25.2088L50.4242 27.0457Z" fill="#BF6BC6"/>
<path d="M20.41 34.7932C20.2386 32.4584 20.4304 30.3889 20.4508 28.2051L20.41 34.7932Z" fill="#F38737"/>
<path d="M51.8643 45.1281C50.1621 42.0259 49.007 40.136 47.5742 36.8011C47.348 36.2469 47.2679 35.644 47.3416 35.05C47.7008 32.7029 49.0886 30.7722 49.9417 29.3354C50.7785 27.7598 51.6887 26.3556 52.501 24.8127C52.848 24.1474 53.0888 23.4902 52.8276 23.0167C52.5663 22.5432 52.0398 22.6493 51.799 23.0616C51.5647 23.4637 51.3057 23.8509 51.0234 24.2208C49.9295 25.7638 48.7049 26.9842 47.4681 28.4251C45.3374 30.7722 41.3739 30.4416 39.0881 28.1884L36.3288 25.4168C35.6022 24.6698 34.9654 23.9759 34.398 23.3432C34.2062 23.1269 33.7205 23.2004 33.4878 23.6004C33.1612 24.1596 33.6429 24.878 34.0021 25.3515C34.896 26.5352 35.8144 27.7598 36.7369 28.9313C38.0756 30.5303 39.2824 32.2353 40.3453 34.0295C40.672 34.5781 40.8709 35.1932 40.9275 35.8291C40.984 36.4651 40.8966 37.1056 40.6718 37.7032C40.133 39.2339 39.4881 40.7278 38.8473 42.2218C37.8472 44.5566 36.7737 46.8628 36.0961 49.3201C35.9777 49.7569 35.8716 50.2426 36.3165 50.5896C36.8472 50.9977 37.2921 50.6508 37.688 50.3487C38.4615 49.6893 39.1004 48.8869 39.5697 47.9853C40.7208 46.0138 41.7535 43.9729 43.0026 42.0626C44.2516 40.1523 44.97 40.1931 46.313 41.9891C47.6559 43.7851 48.7906 45.5852 50.0152 47.3935C50.6162 48.3978 51.3949 49.2844 52.3133 50.0099C52.6602 50.2549 53.0643 50.4181 53.4399 50.1691C53.5902 50.0211 53.6982 49.8356 53.7528 49.6317C53.8073 49.4279 53.8064 49.2132 53.7501 49.0099C53.6154 48.4588 53.0031 47.471 52.6806 46.7241L51.8643 45.1281Z" fill="#9FBF04"/>
<path d="M77.5348 29.5926C78.91 29.5926 80.0248 28.4779 80.0248 27.1027C80.0248 25.7276 78.91 24.6128 77.5348 24.6128C76.1597 24.6128 75.0449 25.7276 75.0449 27.1027C75.0449 28.4779 76.1597 29.5926 77.5348 29.5926Z" fill="#D5C405"/>
<path d="M43.5705 28.7681C45.1847 28.7681 46.4932 27.4596 46.4932 25.8455C46.4932 24.2313 45.1847 22.9229 43.5705 22.9229C41.9564 22.9229 40.6479 24.2313 40.6479 25.8455C40.6479 27.4596 41.9564 28.7681 43.5705 28.7681Z" fill="#9FBF04"/>
<path d="M59.0729 14.5755C61.3002 14.5755 63.1058 12.7699 63.1058 10.5426C63.1058 8.31534 61.3002 6.50977 59.0729 6.50977C56.8456 6.50977 55.04 8.31534 55.04 10.5426C55.04 12.7699 56.8456 14.5755 59.0729 14.5755Z" fill="#BF6BC6"/>
<path d="M27.957 16.3021C30.2316 16.3021 32.0755 14.4582 32.0755 12.1835C32.0755 9.90889 30.2316 8.06494 27.957 8.06494C25.6823 8.06494 23.8384 9.90889 23.8384 12.1835C23.8384 14.4582 25.6823 16.3021 27.957 16.3021Z" fill="#0994D0"/>
<path d="M13.1571 27.0213C14.8231 27.0213 16.1736 25.6707 16.1736 24.0048C16.1736 22.3388 14.8231 20.9883 13.1571 20.9883C11.4912 20.9883 10.1406 22.3388 10.1406 24.0048C10.1406 25.6707 11.4912 27.0213 13.1571 27.0213Z" fill="#F48735"/>
</svg>
