<svg width="284" height="54" viewBox="0 0 284 54" fill="none" xmlns="http://www.w3.org/2000/svg">
<path d="M10.032 35.24C8.336 35.24 6.8 34.872 5.424 34.136C4.064 33.384 2.992 32.352 2.208 31.04C1.44 29.728 1.056 28.248 1.056 26.6C1.056 24.952 1.448 23.472 2.232 22.16C3.016 20.848 4.088 19.824 5.448 19.088C6.824 18.336 8.36 17.96 10.056 17.96C11.432 17.96 12.688 18.2 13.824 18.68C14.96 19.16 15.92 19.856 16.704 20.768L14.688 22.664C13.472 21.352 11.976 20.696 10.2 20.696C9.048 20.696 8.016 20.952 7.104 21.464C6.192 21.96 5.48 22.656 4.968 23.552C4.456 24.448 4.2 25.464 4.2 26.6C4.2 27.736 4.456 28.752 4.968 29.648C5.48 30.544 6.192 31.248 7.104 31.76C8.016 32.256 9.048 32.504 10.2 32.504C11.976 32.504 13.472 31.84 14.688 30.512L16.704 32.432C15.92 33.344 14.952 34.04 13.8 34.52C12.664 35 11.408 35.24 10.032 35.24ZM30.9848 28.664C30.9848 28.872 30.9688 29.168 30.9368 29.552H20.8808C21.0568 30.496 21.5128 31.248 22.2488 31.808C23.0008 32.352 23.9288 32.624 25.0328 32.624C26.4408 32.624 27.6008 32.16 28.5128 31.232L30.1208 33.08C29.5448 33.768 28.8168 34.288 27.9368 34.64C27.0568 34.992 26.0648 35.168 24.9608 35.168C23.5528 35.168 22.3128 34.888 21.2408 34.328C20.1688 33.768 19.3368 32.992 18.7448 32C18.1688 30.992 17.8808 29.856 17.8808 28.592C17.8808 27.344 18.1608 26.224 18.7208 25.232C19.2968 24.224 20.0888 23.44 21.0968 22.88C22.1048 22.32 23.2408 22.04 24.5048 22.04C25.7528 22.04 26.8648 22.32 27.8408 22.88C28.8328 23.424 29.6008 24.2 30.1448 25.208C30.7048 26.2 30.9848 27.352 30.9848 28.664ZM24.5048 24.44C23.5448 24.44 22.7288 24.728 22.0568 25.304C21.4008 25.864 21.0008 26.616 20.8568 27.56H28.1288C28.0008 26.632 27.6088 25.88 26.9528 25.304C26.2968 24.728 25.4808 24.44 24.5048 24.44ZM37.8264 35.168C36.7864 35.168 35.7704 35.032 34.7784 34.76C33.7864 34.488 32.9944 34.144 32.4024 33.728L33.5544 31.448C34.1304 31.832 34.8184 32.144 35.6184 32.384C36.4344 32.608 37.2344 32.72 38.0184 32.72C39.8104 32.72 40.7064 32.248 40.7064 31.304C40.7064 30.856 40.4744 30.544 40.0104 30.368C39.5624 30.192 38.8344 30.024 37.8264 29.864C36.7704 29.704 35.9064 29.52 35.2344 29.312C34.5784 29.104 34.0024 28.744 33.5064 28.232C33.0264 27.704 32.7864 26.976 32.7864 26.048C32.7864 24.832 33.2904 23.864 34.2984 23.144C35.3224 22.408 36.6984 22.04 38.4264 22.04C39.3064 22.04 40.1864 22.144 41.0664 22.352C41.9464 22.544 42.6664 22.808 43.2264 23.144L42.0744 25.424C40.9864 24.784 39.7624 24.464 38.4024 24.464C37.5224 24.464 36.8504 24.6 36.3864 24.872C35.9384 25.128 35.7144 25.472 35.7144 25.904C35.7144 26.384 35.9544 26.728 36.4344 26.936C36.9304 27.128 37.6904 27.312 38.7144 27.488C39.7384 27.648 40.5784 27.832 41.2344 28.04C41.8904 28.248 42.4504 28.6 42.9144 29.096C43.3944 29.592 43.6344 30.296 43.6344 31.208C43.6344 32.408 43.1144 33.368 42.0744 34.088C41.0344 34.808 39.6184 35.168 37.8264 35.168ZM53.922 34.304C53.57 34.592 53.138 34.808 52.626 34.952C52.13 35.096 51.602 35.168 51.042 35.168C49.634 35.168 48.546 34.8 47.778 34.064C47.01 33.328 46.626 32.256 46.626 30.848V24.68H44.514V22.28H46.626V19.352H49.626V22.28H53.058V24.68H49.626V30.776C49.626 31.4 49.778 31.88 50.082 32.216C50.386 32.536 50.826 32.696 51.402 32.696C52.074 32.696 52.634 32.52 53.082 32.168L53.922 34.304ZM68.7979 22.184V35H65.9419V33.368C65.4619 33.944 64.8619 34.392 64.1419 34.712C63.4219 35.016 62.6459 35.168 61.8139 35.168C60.1019 35.168 58.7499 34.696 57.7579 33.752C56.7819 32.792 56.2939 31.376 56.2939 29.504V22.184H59.2939V29.096C59.2939 30.248 59.5499 31.112 60.0619 31.688C60.5899 32.248 61.3339 32.528 62.2939 32.528C63.3659 32.528 64.2139 32.2 64.8379 31.544C65.4779 30.872 65.7979 29.912 65.7979 28.664V22.184H68.7979ZM71.4058 39.824C70.1418 39.824 69.1818 39.576 68.5258 39.08L69.3898 36.848C69.8378 37.184 70.4218 37.352 71.1418 37.352C71.7018 37.352 72.1258 37.176 72.4138 36.824C72.7178 36.488 72.8698 35.984 72.8698 35.312V22.184H75.8698V35.24C75.8698 36.664 75.4778 37.784 74.6938 38.6C73.9098 39.416 72.8138 39.824 71.4058 39.824ZM74.3578 20.072C73.8138 20.072 73.3578 19.904 72.9898 19.568C72.6218 19.216 72.4378 18.784 72.4378 18.272C72.4378 17.76 72.6218 17.336 72.9898 17C73.3578 16.648 73.8138 16.472 74.3578 16.472C74.9018 16.472 75.3578 16.64 75.7258 16.976C76.0938 17.296 76.2778 17.704 76.2778 18.2C76.2778 18.728 76.0938 19.176 75.7258 19.544C75.3738 19.896 74.9178 20.072 74.3578 20.072ZM196.522 35.168C195.482 35.168 194.466 35.032 193.474 34.76C192.482 34.488 191.69 34.144 191.098 33.728L192.25 31.448C192.826 31.832 193.514 32.144 194.314 32.384C195.13 32.608 195.93 32.72 196.714 32.72C198.506 32.72 199.402 32.248 199.402 31.304C199.402 30.856 199.17 30.544 198.706 30.368C198.258 30.192 197.53 30.024 196.522 29.864C195.466 29.704 194.602 29.52 193.93 29.312C193.274 29.104 192.698 28.744 192.202 28.232C191.722 27.704 191.482 26.976 191.482 26.048C191.482 24.832 191.986 23.864 192.994 23.144C194.018 22.408 195.394 22.04 197.122 22.04C198.002 22.04 198.882 22.144 199.762 22.352C200.642 22.544 201.362 22.808 201.922 23.144L200.77 25.424C199.682 24.784 198.458 24.464 197.098 24.464C196.218 24.464 195.546 24.6 195.082 24.872C194.634 25.128 194.41 25.472 194.41 25.904C194.41 26.384 194.65 26.728 195.13 26.936C195.626 27.128 196.386 27.312 197.41 27.488C198.434 27.648 199.274 27.832 199.93 28.04C200.586 28.248 201.146 28.6 201.61 29.096C202.09 29.592 202.33 30.296 202.33 31.208C202.33 32.408 201.81 33.368 200.77 34.088C199.73 34.808 198.314 35.168 196.522 35.168ZM224.098 17.192V35H221.218V33.344C220.722 33.952 220.106 34.408 219.37 34.712C218.65 35.016 217.85 35.168 216.97 35.168C215.738 35.168 214.626 34.896 213.634 34.352C212.658 33.808 211.89 33.04 211.33 32.048C210.77 31.04 210.49 29.888 210.49 28.592C210.49 27.296 210.77 26.152 211.33 25.16C211.89 24.168 212.658 23.4 213.634 22.856C214.626 22.312 215.738 22.04 216.97 22.04C217.818 22.04 218.594 22.184 219.298 22.472C220.002 22.76 220.602 23.192 221.098 23.768V17.192H224.098ZM217.33 32.6C218.05 32.6 218.698 32.44 219.274 32.12C219.85 31.784 220.306 31.312 220.642 30.704C220.978 30.096 221.146 29.392 221.146 28.592C221.146 27.792 220.978 27.088 220.642 26.48C220.306 25.872 219.85 25.408 219.274 25.088C218.698 24.752 218.05 24.584 217.33 24.584C216.61 24.584 215.962 24.752 215.386 25.088C214.81 25.408 214.354 25.872 214.018 26.48C213.682 27.088 213.514 27.792 213.514 28.592C213.514 29.392 213.682 30.096 214.018 30.704C214.354 31.312 214.81 31.784 215.386 32.12C215.962 32.44 216.61 32.6 217.33 32.6ZM240.071 28.664C240.071 28.872 240.055 29.168 240.023 29.552H229.967C230.143 30.496 230.599 31.248 231.335 31.808C232.087 32.352 233.015 32.624 234.119 32.624C235.527 32.624 236.687 32.16 237.599 31.232L239.207 33.08C238.631 33.768 237.903 34.288 237.023 34.64C236.143 34.992 235.151 35.168 234.047 35.168C232.639 35.168 231.399 34.888 230.327 34.328C229.255 33.768 228.423 32.992 227.831 32C227.255 30.992 226.967 29.856 226.967 28.592C226.967 27.344 227.247 26.224 227.807 25.232C228.383 24.224 229.175 23.44 230.183 22.88C231.191 22.32 232.327 22.04 233.591 22.04C234.839 22.04 235.951 22.32 236.927 22.88C237.919 23.424 238.687 24.2 239.231 25.208C239.791 26.2 240.071 27.352 240.071 28.664ZM233.591 24.44C232.631 24.44 231.815 24.728 231.143 25.304C230.487 25.864 230.087 26.616 229.943 27.56H237.215C237.087 26.632 236.695 25.88 236.039 25.304C235.383 24.728 234.567 24.44 233.591 24.44ZM238.103 17.144L234.887 20.432H232.151L228.935 17.144H231.407L233.519 18.92L235.631 17.144H238.103ZM250.656 34.304C250.304 34.592 249.872 34.808 249.36 34.952C248.864 35.096 248.336 35.168 247.776 35.168C246.368 35.168 245.28 34.8 244.512 34.064C243.744 33.328 243.36 32.256 243.36 30.848V24.68H241.248V22.28H243.36V19.352H246.36V22.28H249.792V24.68H246.36V30.776C246.36 31.4 246.512 31.88 246.816 32.216C247.12 32.536 247.56 32.696 248.136 32.696C248.808 32.696 249.368 32.52 249.816 32.168L250.656 34.304ZM269.3 22.04C270.916 22.04 272.196 22.512 273.14 23.456C274.084 24.384 274.556 25.784 274.556 27.656V35H271.556V28.04C271.556 26.92 271.308 26.08 270.812 25.52C270.316 24.944 269.604 24.656 268.676 24.656C267.668 24.656 266.86 24.992 266.252 25.664C265.644 26.32 265.34 27.264 265.34 28.496V35H262.34V28.04C262.34 26.92 262.092 26.08 261.596 25.52C261.1 24.944 260.388 24.656 259.46 24.656C258.436 24.656 257.62 24.984 257.012 25.64C256.42 26.296 256.124 27.248 256.124 28.496V35H253.124V22.184H255.98V23.816C256.46 23.24 257.06 22.8 257.78 22.496C258.5 22.192 259.3 22.04 260.18 22.04C261.14 22.04 261.988 22.224 262.724 22.592C263.476 22.944 264.068 23.472 264.5 24.176C265.028 23.504 265.708 22.984 266.54 22.616C267.372 22.232 268.292 22.04 269.3 22.04ZM278.39 22.184H281.39V35H278.39V22.184ZM279.902 20.072C279.358 20.072 278.902 19.904 278.534 19.568C278.166 19.216 277.982 18.784 277.982 18.272C277.982 17.76 278.166 17.336 278.534 17C278.902 16.648 279.358 16.472 279.902 16.472C280.446 16.472 280.902 16.64 281.27 16.976C281.638 17.296 281.822 17.704 281.822 18.2C281.822 18.728 281.638 19.176 281.27 19.544C280.918 19.896 280.462 20.072 279.902 20.072Z" fill="#0994D0"/>
<path d="M103.316 43.0832C105.279 42.9567 104.61 43.8996 104.54 44.5568C104.397 46.014 103.475 46.9732 102.732 47.8019C101.863 48.6754 100.65 49.1611 99.936 48.7692C99.0175 48.2672 99.8584 47.0467 100.344 46.3201C102.601 43.1036 102.805 42.8016 103.316 43.0832Z" fill="#0994D0"/>
<path d="M126.563 28.9845C125.816 32.9276 125.126 36.8788 124.309 40.8219C123.599 43.6016 122.873 46.4018 121.452 49.4999C120.828 50.8755 119.411 51.3898 118.636 51.1571C117.644 50.8551 117.852 49.2427 118.146 48.0386C118.962 44.6874 119.832 41.7403 120.595 38.4748C120.883 37.5514 121.119 36.6124 121.301 35.6624C121.428 34.9359 121.558 34.0297 120.852 33.5072C120.072 32.9276 119.268 33.5358 118.595 33.9154C117.717 34.4261 116.896 35.0281 116.146 35.7114C114.684 37.0584 113.288 38.4871 111.888 39.879C110.937 38.3156 110.092 36.8543 110.284 34.9808C112.387 33.0014 114.176 30.7139 115.591 28.1967C116.227 27.0579 116.235 25.4578 115.684 24.67C113.595 21.6699 111.133 19.2534 108.427 16.8778L108.5 17.0288C108.533 16.788 108.451 16.8655 108.337 16.9308C108.26 16.0002 107.602 16.0328 107.092 15.5593C106.41 14.9511 106.227 14.796 105.051 13.7143C104.108 12.8368 102.729 11.3265 103.557 10.3754C104.276 9.55903 106.039 10.7591 106.957 11.5714C108.868 13.2531 110.713 14.4287 112.672 15.9512C114.245 17.2645 116.102 18.1926 118.097 18.6615C120.419 19.1595 122.587 18.4575 123.293 16.192C123.784 14.5865 124.058 12.9228 124.109 11.2448C124.211 8.44469 124.109 7.65689 124.109 4.85674C124.109 3.94241 124.02 2.40764 124.056 1.77087C124.093 1.1341 123.824 0.701424 124.464 0.546314C125.105 0.391204 125.53 0.921844 125.873 1.45657C126.434 2.37061 126.811 3.38564 126.983 4.44448C127.33 6.28539 127.158 5.84455 127.452 7.70995L127.681 10.0815C127.767 13.347 127.848 12.6245 127.742 15.8818C127.742 16.0655 127.575 18.3309 127.571 18.5064C127.331 20.8984 127.088 23.2917 126.84 25.6864" fill="#0994D0"/>
<path d="M98.2991 35.8829C97.2787 37.0095 95.5235 38.8749 94.4908 39.9647C93.9765 40.5158 94.1397 41.1036 94.6173 41.2505C94.9602 41.3607 96.9236 42.0138 97.2624 42.1199C97.6705 42.2465 97.8297 42.1893 96.8297 43.5118C95.114 45.734 93.2133 47.8068 91.1477 49.7081C90.5069 50.304 89.5558 51.1898 90.3967 52.0347C91.1233 52.7613 91.9927 51.8021 92.6621 51.3367C95.5194 49.357 98.6502 45.5242 101.189 43.2302C101.324 43.1077 101.422 43.2792 103.957 43.52C104.038 43.52 104.561 43.6261 104.516 44.1078C104.342 45.6975 103.903 47.2469 103.218 48.6917C102.54 50.1652 102.067 51.0633 101.307 52.4062C101.054 52.8593 100.785 53.3981 101.307 53.7981C101.83 54.1981 102.287 53.8471 102.695 53.545C103.92 52.6307 104.736 51.4021 105.434 50.051C106.21 48.5978 106.679 46.9243 107.308 45.4834L107.512 44.9242C107.92 43.7894 107.961 43.818 108.243 43.8057C109.059 43.7772 110.606 43.6465 111.406 43.5363C112.679 43.3567 113.173 43.0261 112.631 41.6832C112.324 40.928 112.088 40.177 111.814 39.5075C111.173 37.5972 110.794 37.0584 110.439 34.793C110.267 32.4582 110.545 30.3805 110.479 28.2049C110.394 24.5123 109.892 20.8411 108.981 17.2615L108.949 17.0778C108.892 16.7717 108.949 17.0288 108.896 16.8084C108.761 15.992 108.014 15.3022 107.185 15.4777C106.357 15.6532 106.528 17.4288 106.606 18.0534C106.81 19.7188 107.234 21.3719 107.389 23.0414C107.536 23.9451 107.584 24.8621 107.532 25.7762C107.381 27.2987 106.589 28.1233 105.006 28.36C101.381 28.9029 98.3604 27.413 95.4296 25.5925C94.352 24.9272 93.3193 24.1721 92.1927 23.6006C91.6335 23.3067 90.7926 22.8618 90.2212 23.5557C89.715 24.1598 90.1681 24.7517 90.6743 25.1884L90.9804 25.417C94.152 27.5069 96.797 29.3111 100.165 31.25C101.242 31.8704 101.03 32.8174 100.14 33.8297L98.2991 35.8829Z" fill="#F48735"/>
<path d="M161.205 43.0669C161.18 41.8668 161.205 42.0138 161.176 41.7036C160.796 38.4381 160.862 35.989 161.131 31.2785C161.311 27.9722 161.605 24.6659 162.764 21.5066C163.103 20.5718 163.454 19.2616 164.531 19.4044C165.45 19.5269 164.829 21.2045 164.58 22.1189C164.14 23.7459 163.906 25.4216 163.882 27.1069C163.862 30.6336 165.478 31.752 168.748 30.6499C169.879 30.2703 171.307 29.3478 172.373 28.7151C173.597 27.9926 175.311 27.0824 176.071 26.9926C176.442 26.9436 176.842 26.9518 176.973 27.3559C177.023 27.5569 177.004 27.7689 176.918 27.9577C176.833 28.1465 176.687 28.3011 176.503 28.3967C175.328 29.2131 174.136 29.9642 172.948 30.7438C171.887 31.4377 170.777 32.0663 169.772 32.8378C167.731 34.4052 167.458 36.0257 168.956 38.1075C170.654 40.4423 172.487 42.7485 174.238 45.0466C174.944 45.9732 175.577 46.8957 176.279 47.8345C176.667 48.3611 177.042 49.006 176.532 49.4672C176.022 49.9285 175.36 49.3938 174.899 49.059C173.242 47.8345 172.042 46.2018 170.695 44.6629C169.23 42.973 167.838 41.2301 166.025 39.8708C165.617 39.5483 165.05 39.1116 164.535 39.4626C163.956 39.8382 163.846 40.8668 163.899 41.5811C164.05 43.622 164.715 45.565 165.123 47.5447C165.425 48.9203 165.707 49.4713 164.85 49.757C163.458 50.1652 163.058 48.7937 162.678 47.7161C162.56 47.3814 162.152 46.0466 162.041 45.7079L161.205 43.0669Z" fill="#D5C405"/>
<path d="M140.424 27.0457C140.575 29.2172 139.236 33.6787 138.681 35.7237C138.343 36.9482 139.245 37.5156 140.465 37.5279C140.918 37.5279 141.514 37.5646 141.967 37.5564C143.212 37.5564 144.629 37.5564 144.629 37.5564C145.061 38.7565 145.445 40.4137 146.025 41.6995C146.11 42.0301 146.245 42.3118 146.404 42.7649C146.535 43.0385 146.651 43.3192 146.751 43.6057C147.359 44.8303 147.947 46.0548 148.584 47.2386C149.221 48.4223 149.959 49.5938 151.119 50.4142C151.34 50.5839 151.615 50.6703 151.894 50.6584C152.173 50.6465 152.439 50.5369 152.645 50.3489C153.151 49.9979 152.886 49.5326 152.719 49.1244C152.433 48.4223 152.098 47.7406 151.755 47.0631C150.853 45.3966 150.079 43.6635 149.441 41.8791L148.625 39.3769C148.502 39.0228 148.413 38.6579 148.359 38.2871L148.18 37.0625C148.865 36.8285 149.566 36.6457 150.278 36.5156C151.037 36.3441 151.735 35.9645 151.882 36.0666C152.344 36.464 152.755 36.9163 153.107 37.4136H153.127C153.535 37.8626 153.364 37.687 153.592 37.9728L153.825 38.2544C153.935 38.3646 153.996 38.4708 154.103 38.581V38.5565L154.352 38.8136L155.441 40.0055C157.952 42.671 158.854 43.3812 161.564 45.5732C161.878 45.8263 162.205 46.0589 162.523 46.3038C162.8 46.471 163.095 46.6078 163.401 46.712C163.67 46.81 164.862 47.2549 165.368 46.8059C165.719 46.5038 165.577 46.1406 165.344 45.8793C164.549 45.0298 163.691 44.2425 162.776 43.5241C161.975 42.8905 161.213 42.2089 160.495 41.4832C158.821 39.7484 156.703 36.7564 155.429 34.7155C155.401 34.6706 156.654 34.1114 157.425 33.597C159.78 32.001 160.086 32.2215 158.205 30.2214C156.792 28.7192 155.094 27.0743 153.751 25.5068C150.682 21.923 150.184 21.9556 152.07 20.0167C154.723 17.2941 157.846 15.1185 160.601 12.5061C161.141 11.9823 161.642 11.4188 162.099 10.8203C162.458 10.3713 163.225 9.6611 162.581 8.97126C162.025 8.37123 161.307 8.62839 160.76 9.01208C159.209 10.1101 157.903 11.3102 156.523 12.5061C154.017 14.6654 151.372 16.4737 147.951 16.8043C145.465 17.0411 144.131 15.8206 143.596 13.3593C143.073 10.9591 143.384 8.52226 143.522 6.11397C143.71 4.39143 143.824 3.12198 143.931 1.55047C143.975 0.889209 143.931 0.129986 143.114 0.00753013C142.563 -0.0741068 141.975 0.521843 141.71 1.12596C140.988 2.78319 140.894 4.66083 140.706 6.43236C140.163 11.9592 139.8 19.7065 140.473 25.2088L140.424 27.0457Z" fill="#BF6BC6"/>
<path d="M110.41 34.7931C110.239 32.4582 110.431 30.3887 110.451 28.205L110.41 34.7931Z" fill="#F38737"/>
<path d="M141.865 45.1283C140.163 42.0261 139.007 40.1362 137.575 36.8013C137.348 36.2472 137.268 35.6442 137.342 35.0502C137.701 32.7032 139.089 30.7724 139.942 29.3356C140.779 27.76 141.689 26.3559 142.502 24.8129C142.848 24.1476 143.089 23.4904 142.828 23.0169C142.567 22.5434 142.04 22.6496 141.799 23.0618C141.565 23.464 141.306 23.8511 141.024 24.2211C139.93 25.764 138.705 26.9845 137.469 28.4254C135.338 30.7724 131.374 30.4418 129.089 28.1886L126.329 25.4171C125.603 24.6701 124.966 23.9762 124.399 23.3435C124.207 23.1271 123.721 23.2006 123.488 23.6006C123.162 24.1599 123.643 24.8783 124.003 25.3518C124.897 26.5355 125.815 27.76 126.737 28.9315C128.076 30.5306 129.283 32.2356 130.346 34.0298C130.672 34.5783 130.871 35.1934 130.928 35.8294C130.984 36.4653 130.897 37.1058 130.672 37.7034C130.134 39.2341 129.489 40.7281 128.848 42.222C127.848 44.5568 126.774 46.8631 126.097 49.3204C125.978 49.7571 125.872 50.2428 126.317 50.5898C126.848 50.998 127.293 50.651 127.689 50.349C128.462 49.6896 129.101 48.8871 129.57 47.9856C130.721 46.0141 131.754 43.9731 133.003 42.0628C134.252 40.1525 134.971 40.1933 136.313 41.9894C137.656 43.7854 138.791 45.5855 140.016 47.3937C140.617 48.398 141.395 49.2846 142.314 50.0102C142.661 50.2551 143.065 50.4184 143.44 50.1694C143.591 50.0213 143.699 49.8358 143.753 49.632C143.808 49.4282 143.807 49.2135 143.751 49.0101C143.616 48.4591 143.004 47.4713 142.681 46.7243L141.865 45.1283Z" fill="#9FBF04"/>
<path d="M167.535 29.5928C168.91 29.5928 170.025 28.478 170.025 27.1028C170.025 25.7277 168.91 24.6129 167.535 24.6129C166.16 24.6129 165.045 25.7277 165.045 27.1028C165.045 28.478 166.16 29.5928 167.535 29.5928Z" fill="#D5C405"/>
<path d="M133.57 28.7682C135.184 28.7682 136.493 27.4597 136.493 25.8456C136.493 24.2315 135.184 22.923 133.57 22.923C131.956 22.923 130.647 24.2315 130.647 25.8456C130.647 27.4597 131.956 28.7682 133.57 28.7682Z" fill="#9FBF04"/>
<path d="M149.073 14.5756C151.3 14.5756 153.106 12.77 153.106 10.5428C153.106 8.31546 151.3 6.50989 149.073 6.50989C146.846 6.50989 145.04 8.31546 145.04 10.5428C145.04 12.77 146.846 14.5756 149.073 14.5756Z" fill="#BF6BC6"/>
<path d="M117.956 16.3022C120.231 16.3022 122.075 14.4583 122.075 12.1836C122.075 9.90902 120.231 8.06506 117.956 8.06506C115.682 8.06506 113.838 9.90902 113.838 12.1836C113.838 14.4583 115.682 16.3022 117.956 16.3022Z" fill="#0994D0"/>
<path d="M103.157 27.0211C104.823 27.0211 106.174 25.6706 106.174 24.0046C106.174 22.3387 104.823 20.9882 103.157 20.9882C101.491 20.9882 100.141 22.3387 100.141 24.0046C100.141 25.6706 101.491 27.0211 103.157 27.0211Z" fill="#F48735"/>
</svg>
