<svg width="126" height="35" viewBox="0 0 126 35" fill="none" xmlns="http://www.w3.org/2000/svg">
<path d="M8.60575 27.8425C9.87457 27.7607 9.44196 28.37 9.39711 28.7947C9.30479 29.7365 8.70862 30.3564 8.22853 30.8918C7.66666 31.4564 6.88321 31.7703 6.42158 31.517C5.82806 31.1926 6.37146 30.4038 6.68537 29.9343C8.14412 27.8556 8.27601 27.6604 8.60575 27.8425Z" fill="#0994D0"/>
<path d="M23.6278 18.7312C23.145 21.2794 22.6992 23.8328 22.1717 26.381C21.7127 28.1774 21.2431 29.987 20.3251 31.9892C19.9216 32.8781 19.0062 33.2105 18.505 33.0601C17.864 32.8649 17.9985 31.823 18.1885 31.0448C18.716 28.8791 19.2779 26.9745 19.7712 24.8642C19.9573 24.2675 20.1097 23.6607 20.2275 23.0467C20.3093 22.5772 20.3937 21.9916 19.9374 21.6539C19.4335 21.2794 18.9139 21.6724 18.4786 21.9177C17.9116 22.2477 17.3811 22.6368 16.8959 23.0784C15.9515 23.9489 15.0494 24.8722 14.1446 25.7717C13.53 24.7614 12.9839 23.817 13.1079 22.6062C14.4666 21.3271 15.6229 19.8488 16.5371 18.222C16.9487 17.4861 16.9539 16.452 16.5978 15.9429C15.2472 14.0041 13.6566 12.4424 11.9077 10.9072L11.9551 11.0048C11.9762 10.8492 11.9235 10.8993 11.8496 10.9415C11.7995 10.3401 11.3748 10.3612 11.0451 10.0552C10.6045 9.66212 10.4858 9.56188 9.72613 8.86284C9.11678 8.2957 8.22518 7.31968 8.76067 6.70505C9.22494 6.17748 10.3645 6.95301 10.958 7.47795C12.1926 8.56476 13.3849 9.32447 14.6511 10.3084C15.6674 11.1571 16.8678 11.7569 18.1568 12.06C19.6578 12.3818 21.0585 11.9281 21.5148 10.464C21.8319 9.42649 22.0093 8.35133 22.0424 7.26692C22.1084 5.45733 22.0424 4.94822 22.0424 3.13863C22.0424 2.54775 21.9844 1.5559 22.0081 1.14439C22.0319 0.732885 21.8578 0.45327 22.2719 0.35303C22.6861 0.25279 22.9604 0.595715 23.182 0.941278C23.5448 1.53198 23.7885 2.18794 23.8995 2.87221C24.1237 4.06189 24.0129 3.777 24.2028 4.98251L24.3506 6.51513C24.406 8.62543 24.4587 8.15853 24.3901 10.2636C24.3901 10.3823 24.282 11.8463 24.2793 11.9597C24.1246 13.5055 23.9672 15.0522 23.8072 16.5998" fill="#0994D0"/>
<path d="M5.3633 23.1892C4.70383 23.9173 3.56954 25.1228 2.90216 25.8271C2.56978 26.1832 2.6753 26.5631 2.98393 26.658C3.20551 26.7293 4.47433 27.1513 4.69328 27.2199C4.95707 27.3017 5.05994 27.2647 4.41366 28.1194C3.30493 29.5555 2.07656 30.895 0.74173 32.1237C0.327582 32.5089 -0.287045 33.0813 0.256359 33.6273C0.725902 34.0969 1.28777 33.477 1.72038 33.1762C3.5669 31.8969 5.59016 29.4199 7.23092 27.9374C7.31797 27.8583 7.38128 27.9691 9.01941 28.1247C9.07216 28.1247 9.40981 28.1933 9.3808 28.5046C9.26847 29.5319 8.98493 30.5332 8.54195 31.4669C8.10406 32.4192 7.79807 32.9995 7.30742 33.8674C7.14387 34.1602 6.96977 34.5084 7.30742 34.7669C7.64507 35.0254 7.94051 34.7985 8.2043 34.6033C8.99567 34.0124 9.52324 33.2184 9.97432 32.3453C10.4755 31.4062 10.7789 30.3247 11.1851 29.3935L11.317 29.0321C11.5808 28.2988 11.6072 28.3173 11.7892 28.3093C12.3168 28.2909 13.3165 28.2065 13.8335 28.1352C14.6566 28.0192 14.9757 27.8055 14.6249 26.9376C14.4271 26.4496 14.2741 25.9643 14.0973 25.5317C13.6832 24.2971 13.4379 23.9489 13.2084 22.4849C13.0976 20.976 13.2769 19.6333 13.2347 18.2274C13.1797 15.841 12.855 13.4685 12.2666 11.1552L12.2455 11.0365C12.2086 10.8386 12.2455 11.0048 12.2112 10.8624C12.1242 10.3348 11.6415 9.88901 11.106 10.0024C10.5705 10.1159 10.6813 11.2633 10.7314 11.6669C10.8633 12.7432 11.1376 13.8115 11.2379 14.8904C11.3329 15.4744 11.3638 16.0671 11.3302 16.6578C11.2326 17.6417 10.7208 18.1746 9.69734 18.3276C7.3549 18.6784 5.40287 17.7156 3.50887 16.5391C2.81247 16.1091 2.14508 15.6211 1.41703 15.2518C1.05564 15.0619 0.512234 14.7744 0.14293 15.2228C-0.184167 15.6132 0.108638 15.9957 0.435735 16.278L0.633577 16.4257C2.68321 17.7763 4.39256 18.9422 6.56881 20.1952C7.26521 20.5962 7.12804 21.2082 6.55299 21.8624L5.3633 23.1892Z" fill="#F48735"/>
<path d="M46.0155 27.8319C45.9997 27.0564 46.0155 27.1513 45.997 26.9509C45.7517 24.8405 45.7939 23.2578 45.968 20.2137C46.0841 18.077 46.274 15.9403 47.0232 13.8986C47.2421 13.2945 47.469 12.4478 48.1654 12.5401C48.7589 12.6192 48.3579 13.7034 48.197 14.2943C47.9127 15.3458 47.7612 16.4287 47.7459 17.5178C47.7328 19.7969 48.7774 20.5197 50.8903 19.8075C51.621 19.5621 52.5443 18.966 53.2327 18.5571C54.0241 18.0902 55.132 17.502 55.6227 17.4439C55.8627 17.4123 56.1212 17.4175 56.2056 17.6787C56.2379 17.8086 56.2256 17.9456 56.1705 18.0676C56.1155 18.1896 56.021 18.2896 55.9023 18.3514C55.1426 18.8789 54.3723 19.3643 53.6047 19.8681C52.9188 20.3166 52.2013 20.7228 51.5524 21.2214C50.2335 22.2343 50.0567 23.2816 51.0248 24.6269C52.1222 26.1357 53.3066 27.6261 54.4383 29.1113C54.8946 29.7101 55.3035 30.3062 55.7572 30.913C56.0078 31.2532 56.2505 31.67 55.9207 31.9681C55.591 32.2662 55.1637 31.9206 54.8656 31.7043C53.7946 30.913 53.0191 29.8578 52.1486 28.8633C51.2016 27.7712 50.3021 26.6449 49.1308 25.7664C48.867 25.558 48.5004 25.2758 48.168 25.5027C47.7934 25.7453 47.7222 26.4101 47.7565 26.8717C47.8541 28.1907 48.2841 29.4463 48.5479 30.7257C48.7431 31.6146 48.9251 31.9707 48.3711 32.1554C47.4716 32.4192 47.2131 31.5329 46.9678 30.8365C46.8913 30.6201 46.6275 29.7576 46.5563 29.5386L46.0155 27.8319Z" fill="#D5C405"/>
<path d="M32.5869 17.4782C32.6845 18.8816 31.8193 21.7648 31.4605 23.0863C31.2416 23.8777 31.8246 24.2444 32.6133 24.2523C32.9061 24.2523 33.2912 24.276 33.584 24.2708C34.3886 24.2708 35.3039 24.2708 35.3039 24.2708C35.5836 25.0463 35.8315 26.1173 36.2061 26.9482C36.2615 27.1619 36.3485 27.3439 36.4514 27.6367C36.5362 27.8135 36.6111 27.9949 36.6756 28.1801C37.0687 28.9715 37.4485 29.7628 37.86 30.5278C38.2716 31.2928 38.749 32.0499 39.4982 32.5801C39.6415 32.6897 39.8188 32.7456 39.9991 32.7379C40.1794 32.7302 40.3513 32.6594 40.4847 32.5379C40.8118 32.311 40.6404 32.0103 40.5322 31.7465C40.3476 31.2928 40.1313 30.8523 39.9097 30.4144C39.3265 29.3374 38.8265 28.2175 38.414 27.0643L37.8864 25.4472C37.8073 25.2184 37.7499 24.9826 37.715 24.7429L37.5989 23.9516C38.0415 23.8004 38.4947 23.6822 38.9548 23.5981C39.4454 23.4873 39.8965 23.242 39.9915 23.3079C40.2897 23.5647 40.5555 23.8571 40.7828 24.1784H40.796C41.0598 24.4686 40.949 24.3552 41.0967 24.5398L41.2471 24.7218C41.3183 24.7931 41.3579 24.8616 41.4265 24.9329V24.917L41.5874 25.0832L42.2917 25.8535C43.914 27.576 44.497 28.035 46.2485 29.4516C46.4516 29.6151 46.6627 29.7655 46.8684 29.9237C47.0475 30.0317 47.2376 30.1202 47.4356 30.1875C47.6097 30.2508 48.3799 30.5384 48.707 30.2482C48.9339 30.053 48.8416 29.8182 48.6912 29.6494C48.1778 29.1004 47.6231 28.5916 47.032 28.1273C46.5143 27.7178 46.0218 27.2774 45.5574 26.8084C44.4759 25.6873 43.1068 23.7537 42.2838 22.4348C42.2653 22.4058 43.0751 22.0444 43.5737 21.712C45.0958 20.6806 45.2936 20.823 44.0775 19.5305C43.1648 18.5597 42.0675 17.4967 41.1996 16.4837C39.2159 14.1677 38.8941 14.1888 40.1128 12.9358C41.8274 11.1763 43.8454 9.77031 45.626 8.08206C45.9754 7.74355 46.299 7.37939 46.5941 6.99262C46.8262 6.70245 47.3221 6.24346 46.9053 5.79766C46.5466 5.40989 46.0823 5.57607 45.7289 5.82404C44.7265 6.53363 43.8823 7.30916 42.9907 8.08206C41.3711 9.4775 39.6617 10.6461 37.4512 10.8598C35.8447 11.0128 34.9821 10.224 34.6366 8.63338C34.2989 7.08231 34.4994 5.50749 34.5891 3.95114C34.7104 2.83795 34.7843 2.01757 34.8529 1.00199C34.8819 0.574649 34.8529 0.0840028 34.3253 0.00486632C33.9692 -0.0478913 33.5893 0.33724 33.4178 0.727646C32.9509 1.79863 32.8903 3.01205 32.7689 4.15689C32.4181 7.72859 32.1833 12.7353 32.6186 16.2912L32.5869 17.4782Z" fill="#BF6BC6"/>
<path d="M13.1897 22.4849C13.0789 20.976 13.2029 19.6386 13.2161 18.2274L13.1897 22.4849Z" fill="#F38737"/>
<path d="M33.5171 29.164C32.4171 27.1592 31.6706 25.9379 30.7447 23.7827C30.5985 23.4246 30.5467 23.035 30.5943 22.6511C30.8265 21.1343 31.7233 19.8866 32.2746 18.9581C32.8154 17.9398 33.4037 17.0324 33.9286 16.0353C34.1528 15.6053 34.3085 15.1806 34.1396 14.8746C33.9708 14.5686 33.6305 14.6372 33.4749 14.9036C33.3235 15.1635 33.1561 15.4137 32.9737 15.6528C32.2667 16.6499 31.4754 17.4386 30.6761 18.3698C29.2991 19.8866 26.7377 19.6729 25.2605 18.2168L23.4773 16.4257C23.0078 15.943 22.5963 15.4945 22.2296 15.0856C22.1056 14.9458 21.7917 14.9933 21.6413 15.2518C21.4303 15.6132 21.7416 16.0775 21.9737 16.3835C22.5514 17.1485 23.1449 17.9398 23.7411 18.6969C24.6062 19.7303 25.3861 20.8321 26.073 21.9916C26.2841 22.3461 26.4127 22.7436 26.4492 23.1546C26.4857 23.5656 26.4293 23.9795 26.284 24.3657C25.9358 25.3549 25.519 26.3204 25.1049 27.2858C24.4586 28.7947 23.7648 30.2851 23.3269 31.8731C23.2505 32.1554 23.1819 32.4693 23.4694 32.6935C23.8123 32.9573 24.0998 32.7331 24.3557 32.5379C24.8556 32.1117 25.2685 31.5932 25.5718 31.0105C26.3157 29.7364 26.9831 28.4175 27.7902 27.183C28.5974 25.9484 29.0617 25.9748 29.9296 27.1355C30.7974 28.2962 31.5308 29.4595 32.3221 30.628C32.7105 31.2771 33.2138 31.85 33.8073 32.3189C34.0315 32.4772 34.2926 32.5827 34.5353 32.4218C34.6325 32.3261 34.7023 32.2062 34.7375 32.0745C34.7728 31.9428 34.7722 31.8041 34.7358 31.6726C34.6487 31.3165 34.2531 30.6782 34.0447 30.1954L33.5171 29.164Z" fill="#9FBF04"/>
<path d="M50.1072 19.1242C50.9958 19.1242 51.7163 18.4038 51.7163 17.5151C51.7163 16.6264 50.9958 15.906 50.1072 15.906C49.2185 15.906 48.498 16.6264 48.498 17.5151C48.498 18.4038 49.2185 19.1242 50.1072 19.1242Z" fill="#D5C405"/>
<path d="M28.1568 18.5914C29.1999 18.5914 30.0455 17.7458 30.0455 16.7027C30.0455 15.6596 29.1999 14.814 28.1568 14.814C27.1137 14.814 26.2681 15.6596 26.2681 16.7027C26.2681 17.7458 27.1137 18.5914 28.1568 18.5914Z" fill="#9FBF04"/>
<path d="M38.1761 9.41946C39.6154 9.41946 40.7823 8.25261 40.7823 6.81323C40.7823 5.37385 39.6154 4.207 38.1761 4.207C36.7367 4.207 35.5698 5.37385 35.5698 6.81323C35.5698 8.25261 36.7367 9.41946 38.1761 9.41946Z" fill="#BF6BC6"/>
<path d="M18.0674 10.5353C19.5374 10.5353 20.729 9.34363 20.729 7.87366C20.729 6.40369 19.5374 5.21204 18.0674 5.21204C16.5974 5.21204 15.4058 6.40369 15.4058 7.87366C15.4058 9.34363 16.5974 10.5353 18.0674 10.5353Z" fill="#0994D0"/>
<path d="M8.50213 17.4624C9.57875 17.4624 10.4515 16.5896 10.4515 15.513C10.4515 14.4364 9.57875 13.5636 8.50213 13.5636C7.42551 13.5636 6.55273 14.4364 6.55273 15.513C6.55273 16.5896 7.42551 17.4624 8.50213 17.4624Z" fill="#F48735"/>
<path d="M70.688 15.16C69.5573 15.16 68.5333 14.9147 67.616 14.424C66.7093 13.9227 65.9947 13.2347 65.472 12.36C64.96 11.4853 64.704 10.4987 64.704 9.4C64.704 8.30133 64.9653 7.31467 65.488 6.44C66.0107 5.56533 66.7253 4.88267 67.632 4.392C68.5493 3.89067 69.5733 3.64 70.704 3.64C71.6213 3.64 72.4587 3.8 73.216 4.12C73.9733 4.44 74.6133 4.904 75.136 5.512L73.792 6.776C72.9813 5.90133 71.984 5.464 70.8 5.464C70.032 5.464 69.344 5.63467 68.736 5.976C68.128 6.30667 67.6533 6.77067 67.312 7.368C66.9707 7.96533 66.8 8.64267 66.8 9.4C66.8 10.1573 66.9707 10.8347 67.312 11.432C67.6533 12.0293 68.128 12.4987 68.736 12.84C69.344 13.1707 70.032 13.336 70.8 13.336C71.984 13.336 72.9813 12.8933 73.792 12.008L75.136 13.288C74.6133 13.896 73.968 14.36 73.2 14.68C72.4427 15 71.6053 15.16 70.688 15.16ZM84.6565 10.776C84.6565 10.9147 84.6458 11.112 84.6245 11.368H77.9205C78.0378 11.9973 78.3418 12.4987 78.8325 12.872C79.3338 13.2347 79.9525 13.416 80.6885 13.416C81.6272 13.416 82.4005 13.1067 83.0085 12.488L84.0805 13.72C83.6965 14.1787 83.2112 14.5253 82.6245 14.76C82.0378 14.9947 81.3765 15.112 80.6405 15.112C79.7018 15.112 78.8752 14.9253 78.1605 14.552C77.4458 14.1787 76.8912 13.6613 76.4965 13C76.1125 12.328 75.9205 11.5707 75.9205 10.728C75.9205 9.896 76.1072 9.14933 76.4805 8.488C76.8645 7.816 77.3925 7.29333 78.0645 6.92C78.7365 6.54667 79.4938 6.36 80.3365 6.36C81.1685 6.36 81.9098 6.54667 82.5605 6.92C83.2218 7.28267 83.7338 7.8 84.0965 8.472C84.4698 9.13333 84.6565 9.90133 84.6565 10.776ZM80.3365 7.96C79.6965 7.96 79.1525 8.152 78.7045 8.536C78.2672 8.90933 78.0005 9.41067 77.9045 10.04H82.7525C82.6672 9.42133 82.4058 8.92 81.9685 8.536C81.5312 8.152 80.9872 7.96 80.3365 7.96ZM89.2176 15.112C88.5243 15.112 87.847 15.0213 87.1856 14.84C86.5243 14.6587 85.9963 14.4293 85.6016 14.152L86.3696 12.632C86.7536 12.888 87.2123 13.096 87.7456 13.256C88.2896 13.4053 88.823 13.48 89.3456 13.48C90.5403 13.48 91.1376 13.1653 91.1376 12.536C91.1376 12.2373 90.983 12.0293 90.6736 11.912C90.375 11.7947 89.8896 11.6827 89.2176 11.576C88.5136 11.4693 87.9376 11.3467 87.4896 11.208C87.0523 11.0693 86.6683 10.8293 86.3376 10.488C86.0176 10.136 85.8576 9.65067 85.8576 9.032C85.8576 8.22133 86.1936 7.576 86.8656 7.096C87.5483 6.60533 88.4656 6.36 89.6176 6.36C90.2043 6.36 90.791 6.42933 91.3776 6.568C91.9643 6.696 92.4443 6.872 92.8176 7.096L92.0496 8.616C91.3243 8.18933 90.5083 7.976 89.6016 7.976C89.015 7.976 88.567 8.06667 88.2576 8.248C87.959 8.41867 87.8096 8.648 87.8096 8.936C87.8096 9.256 87.9696 9.48533 88.2896 9.624C88.6203 9.752 89.127 9.87467 89.8096 9.992C90.4923 10.0987 91.0523 10.2213 91.4896 10.36C91.927 10.4987 92.3003 10.7333 92.6096 11.064C92.9296 11.3947 93.0896 11.864 93.0896 12.472C93.0896 13.272 92.743 13.912 92.0496 14.392C91.3563 14.872 90.4123 15.112 89.2176 15.112ZM99.948 14.536C99.7133 14.728 99.4253 14.872 99.084 14.968C98.7533 15.064 98.4013 15.112 98.028 15.112C97.0893 15.112 96.364 14.8667 95.852 14.376C95.34 13.8853 95.084 13.1707 95.084 12.232V8.12H93.676V6.52H95.084V4.568H97.084V6.52H99.372V8.12H97.084V12.184C97.084 12.6 97.1853 12.92 97.388 13.144C97.5907 13.3573 97.884 13.464 98.268 13.464C98.716 13.464 99.0893 13.3467 99.388 13.112L99.948 14.536ZM109.865 6.456V15H107.961V13.912C107.641 14.296 107.241 14.5947 106.761 14.808C106.281 15.0107 105.764 15.112 105.209 15.112C104.068 15.112 103.167 14.7973 102.505 14.168C101.855 13.528 101.529 12.584 101.529 11.336V6.456H103.529V11.064C103.529 11.832 103.7 12.408 104.041 12.792C104.393 13.1653 104.889 13.352 105.529 13.352C106.244 13.352 106.809 13.1333 107.225 12.696C107.652 12.248 107.865 11.608 107.865 10.776V6.456H109.865ZM111.604 18.216C110.761 18.216 110.121 18.0507 109.684 17.72L110.26 16.232C110.559 16.456 110.948 16.568 111.428 16.568C111.801 16.568 112.084 16.4507 112.276 16.216C112.479 15.992 112.58 15.656 112.58 15.208V6.456H114.58V15.16C114.58 16.1093 114.319 16.856 113.796 17.4C113.273 17.944 112.543 18.216 111.604 18.216ZM113.572 5.048C113.209 5.048 112.905 4.936 112.66 4.712C112.415 4.47733 112.292 4.18933 112.292 3.848C112.292 3.50667 112.415 3.224 112.66 3C112.905 2.76533 113.209 2.648 113.572 2.648C113.935 2.648 114.239 2.76 114.484 2.984C114.729 3.19733 114.852 3.46933 114.852 3.8C114.852 4.152 114.729 4.45067 114.484 4.696C114.249 4.93067 113.945 5.048 113.572 5.048ZM67.952 30.112C67.2587 30.112 66.5813 30.0213 65.92 29.84C65.2587 29.6587 64.7307 29.4293 64.336 29.152L65.104 27.632C65.488 27.888 65.9467 28.096 66.48 28.256C67.024 28.4053 67.5573 28.48 68.08 28.48C69.2747 28.48 69.872 28.1653 69.872 27.536C69.872 27.2373 69.7173 27.0293 69.408 26.912C69.1093 26.7947 68.624 26.6827 67.952 26.576C67.248 26.4693 66.672 26.3467 66.224 26.208C65.7867 26.0693 65.4027 25.8293 65.072 25.488C64.752 25.136 64.592 24.6507 64.592 24.032C64.592 23.2213 64.928 22.576 65.6 22.096C66.2827 21.6053 67.2 21.36 68.352 21.36C68.9387 21.36 69.5253 21.4293 70.112 21.568C70.6987 21.696 71.1787 21.872 71.552 22.096L70.784 23.616C70.0587 23.1893 69.2427 22.976 68.336 22.976C67.7493 22.976 67.3013 23.0667 66.992 23.248C66.6933 23.4187 66.544 23.648 66.544 23.936C66.544 24.256 66.704 24.4853 67.024 24.624C67.3547 24.752 67.8613 24.8747 68.544 24.992C69.2267 25.0987 69.7867 25.2213 70.224 25.36C70.6613 25.4987 71.0347 25.7333 71.344 26.064C71.664 26.3947 71.824 26.864 71.824 27.472C71.824 28.272 71.4773 28.912 70.784 29.392C70.0907 29.872 69.1467 30.112 67.952 30.112ZM86.3363 18.128V30H84.4163V28.896C84.0856 29.3013 83.6749 29.6053 83.1843 29.808C82.7043 30.0107 82.1709 30.112 81.5843 30.112C80.7629 30.112 80.0216 29.9307 79.3603 29.568C78.7096 29.2053 78.1976 28.6933 77.8243 28.032C77.4509 27.36 77.2643 26.592 77.2643 25.728C77.2643 24.864 77.4509 24.1013 77.8243 23.44C78.1976 22.7787 78.7096 22.2667 79.3603 21.904C80.0216 21.5413 80.7629 21.36 81.5843 21.36C82.1496 21.36 82.6669 21.456 83.1363 21.648C83.6056 21.84 84.0056 22.128 84.3363 22.512V18.128H86.3363ZM81.8243 28.4C82.3043 28.4 82.7363 28.2933 83.1203 28.08C83.5043 27.856 83.8083 27.5413 84.0323 27.136C84.2563 26.7307 84.3683 26.2613 84.3683 25.728C84.3683 25.1947 84.2563 24.7253 84.0323 24.32C83.8083 23.9147 83.5043 23.6053 83.1203 23.392C82.7363 23.168 82.3043 23.056 81.8243 23.056C81.3443 23.056 80.9123 23.168 80.5283 23.392C80.1443 23.6053 79.8403 23.9147 79.6163 24.32C79.3923 24.7253 79.2803 25.1947 79.2803 25.728C79.2803 26.2613 79.3923 26.7307 79.6163 27.136C79.8403 27.5413 80.1443 27.856 80.5283 28.08C80.9123 28.2933 81.3443 28.4 81.8243 28.4ZM96.9846 25.776C96.9846 25.9147 96.974 26.112 96.9526 26.368H90.2486C90.366 26.9973 90.67 27.4987 91.1606 27.872C91.662 28.2347 92.2806 28.416 93.0166 28.416C93.9553 28.416 94.7286 28.1067 95.3366 27.488L96.4086 28.72C96.0246 29.1787 95.5393 29.5253 94.9526 29.76C94.366 29.9947 93.7046 30.112 92.9686 30.112C92.03 30.112 91.2033 29.9253 90.4886 29.552C89.774 29.1787 89.2193 28.6613 88.8246 28C88.4406 27.328 88.2486 26.5707 88.2486 25.728C88.2486 24.896 88.4353 24.1493 88.8086 23.488C89.1926 22.816 89.7206 22.2933 90.3926 21.92C91.0646 21.5467 91.822 21.36 92.6646 21.36C93.4966 21.36 94.238 21.5467 94.8886 21.92C95.55 22.2827 96.062 22.8 96.4246 23.472C96.798 24.1333 96.9846 24.9013 96.9846 25.776ZM92.6646 22.96C92.0246 22.96 91.4806 23.152 91.0326 23.536C90.5953 23.9093 90.3286 24.4107 90.2326 25.04H95.0806C94.9953 24.4213 94.734 23.92 94.2966 23.536C93.8593 23.152 93.3153 22.96 92.6646 22.96ZM95.6726 18.096L93.5286 20.288H91.7046L89.5606 18.096H91.2086L92.6166 19.28L94.0246 18.096H95.6726ZM104.042 29.536C103.807 29.728 103.519 29.872 103.178 29.968C102.847 30.064 102.495 30.112 102.122 30.112C101.183 30.112 100.458 29.8667 99.9457 29.376C99.4338 28.8853 99.1778 28.1707 99.1778 27.232V23.12H97.7698V21.52H99.1778V19.568H101.178V21.52H103.466V23.12H101.178V27.184C101.178 27.6 101.279 27.92 101.482 28.144C101.684 28.3573 101.978 28.464 102.362 28.464C102.81 28.464 103.183 28.3467 103.482 28.112L104.042 29.536ZM116.471 21.36C117.548 21.36 118.402 21.6747 119.031 22.304C119.66 22.9227 119.975 23.856 119.975 25.104V30H117.975V25.36C117.975 24.6133 117.81 24.0533 117.479 23.68C117.148 23.296 116.674 23.104 116.055 23.104C115.383 23.104 114.844 23.328 114.439 23.776C114.034 24.2133 113.831 24.8427 113.831 25.664V30H111.831V25.36C111.831 24.6133 111.666 24.0533 111.335 23.68C111.004 23.296 110.53 23.104 109.911 23.104C109.228 23.104 108.684 23.3227 108.279 23.76C107.884 24.1973 107.687 24.832 107.687 25.664V30H105.687V21.456H107.591V22.544C107.911 22.16 108.311 21.8667 108.791 21.664C109.271 21.4613 109.804 21.36 110.391 21.36C111.031 21.36 111.596 21.4827 112.087 21.728C112.588 21.9627 112.983 22.3147 113.271 22.784C113.623 22.336 114.076 21.9893 114.631 21.744C115.186 21.488 115.799 21.36 116.471 21.36ZM122.531 21.456H124.531V30H122.531V21.456ZM123.539 20.048C123.176 20.048 122.872 19.936 122.627 19.712C122.381 19.4773 122.259 19.1893 122.259 18.848C122.259 18.5067 122.381 18.224 122.627 18C122.872 17.7653 123.176 17.648 123.539 17.648C123.901 17.648 124.205 17.76 124.451 17.984C124.696 18.1973 124.819 18.4693 124.819 18.8C124.819 19.152 124.696 19.4507 124.451 19.696C124.216 19.9307 123.912 20.048 123.539 20.048Z" fill="#0994D0"/>
</svg>
