<svg width="85" height="63" viewBox="0 0 85 63" fill="none" xmlns="http://www.w3.org/2000/svg">
<path d="M71.3438 15.9375L62.6719 9L54 15.9375V17.6719H55.7344V26.3438H60.0703V22.875C60.0703 22.185 60.3444 21.5233 60.8323 21.0354C61.3202 20.5475 61.9819 20.2734 62.6719 20.2734C63.3619 20.2734 64.0236 20.5475 64.5115 21.0354C64.9993 21.5233 65.2734 22.185 65.2734 22.875V26.3438H69.6094V17.6719H71.3438V15.9375Z" fill="#0B87BD"/>
<path d="M75.6719 35C70.883 35 67 38.883 67 43.6719C67 48.4608 70.883 52.3438 75.6719 52.3438C80.4608 52.3438 84.3438 48.4608 84.3438 43.6719C84.3438 38.883 80.4608 35 75.6719 35ZM72.0967 47.3574C72.0579 47.3748 72.0115 47.3574 71.9941 47.3168C71.9863 47.2974 71.9863 47.2742 71.9941 47.2548L73.9046 42.8899L76.4616 45.4469L72.0967 47.3574ZM79.3574 40.0967L77.4469 44.4616L74.8899 41.9046L79.2548 39.9941C79.2935 39.9766 79.34 39.9941 79.3574 40.0347C79.3652 40.0541 79.3652 40.0754 79.3574 40.0967Z" fill="#0B87BD"/>
<path d="M31.5 10.5C34.2848 10.5 36.9555 11.6062 38.9246 13.5754C40.8937 15.5445 42 18.2152 42 21C42 23.7848 40.8937 26.4555 38.9246 28.4246C36.9555 30.3938 34.2848 31.5 31.5 31.5C28.7152 31.5 26.0445 30.3938 24.0754 28.4246C22.1062 26.4555 21 23.7848 21 21C21 18.2152 22.1062 15.5445 24.0754 13.5754C26.0445 11.6062 28.7152 10.5 31.5 10.5ZM31.5 36.75C43.1025 36.75 52.5 41.4487 52.5 47.25V52.5H10.5V47.25C10.5 41.4487 19.8975 36.75 31.5 36.75Z" fill="#0B87BD"/>
</svg>
